<svg xmlns="http://www.w3.org/2000/svg" width="191.758" height="138.375" viewBox="0 0 191.758 138.375">
  <g id="Group_32338" data-name="Group 32338" transform="translate(-383.999 -141.001)">
    <g id="Layer_1-2" transform="translate(441.999 141.001)">
      <g id="Group_30624" data-name="Group 30624">
        <g id="Group_30625" data-name="Group 30625">
          <path id="Path_23790" data-name="Path 23790" d="M75.165,20.258l-6.347,3.621-.042.025-.014-.024-.04-.071-.064-.115-.086-.156-.106-.193c-.039-.07-.082-.145-.129-.225s-.1-.163-.154-.251-.117-.178-.183-.271c-.131-.186-.269-.392-.414-.609s-.3-.448-.457-.684-.328-.478-.5-.72-.362-.482-.556-.716c-.217-.281-.441-.556-.664-.821s-.446-.52-.663-.761-.427-.467-.624-.675-.382-.4-.547-.564l-.035-.035-.034-.034-.034-.034-.033-.033-.031-.033-.032-.032-.032-.031-.033-.03v.006l-.029-.028-.087-.084-.142-.138-.2-.189-.017-.02-.018-.018L62.8,16.3l-.019-.017-.237-.232c-.086-.084-.18-.173-.282-.267s-.212-.193-.332-.295-.249-.207-.389-.315l-.05-.04-.05-.041-.051-.041-.052-.04-.065-.055-.066-.055-.066-.054-.067-.053-.378-.309q-.2-.159-.407-.326t-.436-.339q-.225-.172-.466-.346c-.223-.142-.451-.293-.686-.449s-.475-.317-.724-.48-.5-.328-.77-.491-.54-.324-.825-.481c-.57-.311-1.171-.623-1.8-.929s-1.291-.6-1.979-.887-1.4-.552-2.148-.8S48.944,8.49,48.15,8.3q-1.038-.25-2.12-.438t-2.192-.307q-1.111-.12-2.243-.17t-2.271-.025l-.329,0-.328,0c-.109,0-.219,0-.328.007s-.219.008-.329.015c-.867.065-1.73.164-2.585.3s-1.7.3-2.532.488-1.65.414-2.449.662-1.58.521-2.336.817q-.418.158-.823.329t-.8.352q-.393.181-.775.371t-.751.387q-.646.344-1.256.705t-1.183.729q-.574.368-1.112.737t-1.043.727q-.376.313-.74.609t-.707.581c-.229.19-.45.377-.662.563s-.414.37-.6.554l-.539.547-.5.51-.463.471-.422.428-.167.2-.159.194-.15.183L15.109,19l-.008.014c-.072.083-.141.167-.208.252s-.133.17-.2.255l-.2.257c-.066.086-.132.172-.2.258q-.8,1.036-1.5,2.127t-1.325,2.214q-.617,1.123-1.14,2.267c-.349.761-.665,1.525-.95,2.286q-.307.8-.554,1.6t-.442,1.584q-.2.785-.347,1.553t-.269,1.507q-.043.274-.081.545t-.074.537q-.035.266-.067.528t-.061.517q-.005.036-.01.073l-.009.073-.009.072-.008.071,0,.058q0,.029,0,.057t0,.057q0,.028,0,.056-.016.381-.032.751t-.03.725q-.014.356-.022.7t-.007.668q0,.064,0,.126t0,.123q0,.061,0,.121t.005.119c0,.007,0,.014,0,.02v.04c0,.007,0,.013,0,.02.017.256.037.5.059.743s.045.469.068.69.045.434.064.637.036.4.048.584c.06.376.108.714.148,1.009s.069.548.092.753.038.364.047.471.013.163.013.163l.012.06.012.059.012.059c0,.02.009.039.014.06l.007.033.008.036.008.039.008.042c0,.01,0,.021.005.031L8,46.731l.007.032.007.033,0,.013,0,.013,0,.013.005.013q.027.132.055.264t.057.263q.029.131.059.262t.061.261c.007.035.014.069.022.1s.016.069.024.1l.025.1c.008.034.016.069.024.1s.016.075.024.114l.026.116.027.119q.014.061.027.123l.027.082.026.084.027.085.028.085.083.266.087.277.09.286.093.294.035.118.036.118.036.118.037.118q.033.108.069.218t.074.22q.038.11.079.222t.083.224l.032.085.033.085.033.085.033.087.052.131.051.129.051.127.052.124q.05.122.1.244l.105.246.107.248.108.251.016.033.015.033.015.033.015.033,0,.012.005.012.005.012,0,.012.082.184.082.186.082.187.082.188.026.06.025.059.025.059.026.06.035.067.036.067.036.067.037.067,0,.01,0,.009,0,.009a.048.048,0,0,1,0,.01.161.161,0,0,0,.008.018l.012.021.014.024.016.029.07.135.068.13.066.125.065.119.093.172.093.173.094.174.1.173.019.035.019.036.02.036.022.037.066.119.052.094.038.069.024.043,0,0v.007l0,0,.081.141.082.141.082.141.083.141,0,.006,0,.006,0,.005,0,0q.131.22.267.438t.277.434q.141.216.288.429t.3.422l.093.133.093.133.094.133.095.132,0,0,0,.005,0,.005.005,0,.03.046.031.046.032.045.032.044a29.009,29.009,0,0,0,4.731,5.267,30.8,30.8,0,0,0,5.877,4.026,32.658,32.658,0,0,0,6.759,2.649A34.168,34.168,0,0,0,38.5,72.8l.134.006.135.006.136,0,.137,0,.073,0,.075,0h.152l.148,0,.148,0,.149,0h.472l.213,0,.213,0,.213-.007q.342-.01.684-.028t.685-.044q.343-.026.685-.061t.686-.08c.875-.093,1.744-.227,2.6-.394s1.7-.37,2.517-.6,1.623-.487,2.4-.767,1.525-.58,2.242-.9q.543-.24,1.062-.49t1.008-.508q.489-.258.947-.523t.877-.535c.413-.274.808-.538,1.182-.793s.726-.5,1.053-.736.628-.462.9-.678.515-.423.725-.619l.58-.51.427-.377.264-.234.09-.08.058.061,4.994,5.294-.111.1-.324.286-.523.461-.707.623c-.258.238-.556.489-.889.754s-.7.543-1.1.833-.83.591-1.288.9-.942.635-1.449.967q-.577.37-1.208.734t-1.308.717q-.678.353-1.4.693t-1.481.661c-.843.355-1.72.691-2.624,1s-1.836.6-2.788.855-1.924.481-2.91.669-1.984.339-2.99.447a35.7,35.7,0,0,1-4.813.271A40.485,40.485,0,0,1,35,79.879a41.727,41.727,0,0,1-4.3-.771,36.917,36.917,0,0,1-3.764-1.089c-.578-.193-1.126-.393-1.642-.595s-1-.4-1.453-.6-.872-.394-1.258-.579-.738-.361-1.056-.521q-.241-.115-.452-.222t-.392-.206q-.181-.1-.332-.187t-.272-.166l-.178-.107-.139-.084-.1-.06-.061-.035-.023-.009-.067-.029-.109-.05-.148-.073c-.056-.028-.117-.06-.185-.1s-.141-.076-.22-.121-.163-.094-.251-.147-.182-.112-.28-.175c-.2-.127-.413-.267-.648-.421s-.487-.323-.753-.508-.546-.387-.836-.606-.59-.457-.9-.715c-.637-.482-1.3-1.037-1.981-1.653s-1.369-1.292-2.056-2.018-1.37-1.5-2.033-2.311S7.809,64.06,7.2,63.187c-.313-.431-.61-.872-.894-1.318s-.555-.9-.816-1.35-.512-.907-.755-1.357-.479-.9-.709-1.34c-.2-.454-.4-.9-.592-1.34s-.377-.869-.551-1.29-.336-.833-.483-1.236-.278-.8-.389-1.179l-.175-.557-.167-.532-.158-.506-.15-.479-.1-.458-.1-.426-.09-.393-.083-.358-.13-.6-.1-.448L.7,47.739l-.02-.1s-.012-.068-.034-.2S.6,47.117.555,46.865.466,46.3.411,45.941.3,45.164.23,44.7Q.2,44.355.175,43.969t-.056-.807q-.028-.421-.055-.876t-.051-.94C0,41.022,0,40.688,0,40.343s.011-.7.023-1.063.028-.737.045-1.12.036-.773.053-1.172c.083-.791.183-1.615.309-2.466S.707,32.8.892,31.9s.4-1.805.665-2.726.566-1.851.922-2.782.726-1.849,1.146-2.771S4.5,21.785,5,20.878s1.029-1.8,1.6-2.68,1.175-1.739,1.815-2.575L8.4,15.606l.121-.154c.08-.1.2-.251.356-.446s.351-.434.582-.714.5-.6.8-.957q.241-.253.509-.531t.563-.579q.3-.3.617-.624t.67-.666q.35-.338.739-.679t.808-.691q.419-.35.865-.712l.909-.741q.6-.435,1.245-.878t1.33-.884q.686-.441,1.413-.873t1.5-.844q.467-.251.949-.493t.98-.472q.5-.23,1.011-.447T25.4,2.8q1.386-.538,2.854-.99t2.993-.8q1.525-.351,3.1-.594c1.046-.16,2.1-.282,3.165-.36.13-.008.259-.013.389-.017s.259-.006.388-.008l.388-.005c.129,0,.259,0,.389-.009h0q1.4-.034,2.8.024t2.762.205q1.368.146,2.7.378t2.608.543c.973.237,1.915.51,2.824.81s1.784.628,2.625.973,1.647.709,2.418,1.082,1.5.755,2.2,1.137c.348.191.684.388,1.009.587s.639.4.944.6.6.4.886.587.565.377.836.554.515.378.756.563.471.366.69.542.429.346.629.509.39.318.571.464.327.264.474.39.282.248.407.363.241.225.347.328l.292.284c.017.016.165.153.405.385s.572.561.958.959.826.868,1.282,1.383.927,1.076,1.376,1.658c.237.287.464.582.68.877s.423.591.62.879.384.569.561.835.345.517.5.746c.08.115.154.226.222.333s.131.21.189.308.11.19.158.276l.131.236.105.189.078.14.048.086.016.03Z" fill="#00003d"/>
          <path id="Path_23791" data-name="Path 23791" d="M65.775,32.487v.083a32.616,32.616,0,0,1-.212,3.627,31.961,31.961,0,0,1-2.89,10.093.016.016,0,0,1,0,0v0l0,0,0,0q-.679,1.432-1.493,2.791t-1.751,2.633Q58.487,53,57.433,54.179T55.217,56.44l-.058-.061-.091.08-.265.234-.427.377-.579.51c-.21.2-.453.4-.725.619s-.574.442-.9.678-.679.481-1.053.736-.769.519-1.182.793q-.42.27-.877.535t-.947.523q-.489.258-1.008.508t-1.062.49c-.717.317-1.466.618-2.242.9s-1.577.537-2.4.767-1.662.431-2.517.6-1.722.3-2.6.394q-.343.044-.686.078t-.686.061q-.343.026-.685.045t-.683.03l-.213.006-.213,0-.213,0h-.472l-.149,0-.148,0-.148,0h-.151l-.074,0-.075,0-.136,0-.136,0-.136-.006-.134-.007a34.168,34.168,0,0,1-7.378-1.137,32.658,32.658,0,0,1-6.759-2.649A30.8,30.8,0,0,1,11.137,57.5a29.009,29.009,0,0,1-4.731-5.267l-.032-.046-.032-.046L6.311,52.1l-.03-.044,0,0,0-.005,0-.005-.005,0q-.221-.318-.426-.618t-.394-.583q-.189-.282-.361-.546t-.325-.507l0,0,0-.005,0-.006-.005-.006-.083-.141-.082-.141L4.5,49.337,4.416,49.2l0,0v-.007l0,0-.024-.043-.038-.069L4.3,48.976l-.066-.119-.018-.034-.019-.035-.021-.037-.022-.039c-.013-.026-.027-.053-.043-.081l-.047-.086-.051-.091-.053-.1-.044-.079L3.866,48.2l-.046-.085-.049-.088L3.706,47.9l-.066-.125-.068-.13-.07-.135-.016-.029-.014-.024L3.46,47.44a.161.161,0,0,1-.008-.018l0-.01,0-.009,0-.009-.006-.01-.062-.12-.062-.124q-.031-.063-.061-.127t-.059-.131L3.109,46.7l-.082-.187-.082-.186-.082-.184,0-.012-.005-.012L2.848,46.1l0-.012-.015-.033-.015-.033L2.8,45.991l-.016-.033-.109-.251-.107-.248-.1-.246q-.052-.123-.1-.244l-.052-.126-.051-.127-.051-.128-.052-.13-.032-.084-.033-.085L2.057,44.2l-.033-.087q-.04-.107-.078-.217t-.077-.22l-.076-.223-.075-.224-.035-.117L1.646,43l-.036-.118-.037-.12-.093-.294-.09-.286L1.3,41.9l-.083-.266q-.028-.1-.056-.2t-.054-.2q-.027-.1-.053-.2t-.051-.205c-.008-.034-.016-.068-.024-.1l-.025-.1c-.008-.034-.016-.069-.024-.1s-.015-.07-.022-.105-.019-.08-.028-.119L.858,40.18l-.025-.111q-.012-.055-.025-.108l-.036-.166-.033-.156-.031-.144c-.01-.046-.02-.089-.03-.13l0-.015,0-.014,0-.013,0-.011c0-.012,0-.023-.005-.034s0-.022-.006-.033l-.007-.031-.007-.03L.63,39.14.622,39.1l-.007-.036-.006-.033-.014-.06-.013-.059L.57,38.856c0-.02-.007-.039-.011-.06,0,0,0-.056-.013-.163S.521,38.367.5,38.161.446,37.7.406,37.408.318,36.776.259,36.4c-.012-.186-.028-.38-.048-.584S.169,35.4.146,35.18s-.046-.451-.068-.69S.036,34,.02,33.746q0-.072,0-.143T.01,33.461q0-.071-.005-.142t0-.142q0-.326.007-.667t.022-.7q.014-.355.03-.725t.032-.752Q.1,30.269.1,30.2t.01-.131q0-.065.01-.128t.012-.126q.028-.255.06-.517t.067-.528q.035-.266.075-.537t.082-.545l7.237,1.123-.008.049-.024.143-.04.231-.055.313-.03.391-.036.46-.04.524q-.021.277-.044.582c-.022.2-.032.413-.035.632s0,.445.007.677.016.472.023.716.013.494.013.749c.024.252.047.509.073.77s.053.524.084.789.065.532.106.8.086.533.138.8.112.53.169.793.117.525.18.784.13.514.2.765.152.5.24.737c.069.245.145.483.225.714s.163.454.248.67.172.424.258.626.171.395.253.581q.072.182.146.35t.147.323q.074.155.147.3t.144.271l.056.1.067.122.076.139.084.155h0l.015.028.014.026.013.025.011.025.094.17.1.184.108.2.116.21c.15.25.32.526.511.822s.4.613.638.945.493.681.774,1.04.588.73.919,1.106.692.754,1.073,1.137.787.769,1.217,1.149.885.756,1.365,1.119.986.714,1.517,1.047c.256.184.522.356.795.519s.554.318.838.47.574.3.864.447.582.3.871.452c.307.119.614.242.922.366s.616.247.928.365.625.231.942.334.638.2.964.272a22.8,22.8,0,0,0,3.905.786,25.772,25.772,0,0,0,3.852.143,26.13,26.13,0,0,0,3.594-.381,22.042,22.042,0,0,0,3.133-.787l.353-.116.346-.113.337-.11.328-.106L42.2,56.5l.3-.13.294-.126.286-.122q.285-.113.545-.229t.5-.232q.237-.116.449-.232t.4-.227l.037-.02.036-.019.036-.02.037-.022-.006-.008.157-.1.445-.271.692-.422.9-.548.479-.361.513-.387.541-.409.565-.427c.173-.168.353-.335.536-.5s.37-.335.556-.505.372-.345.553-.524.359-.364.528-.556.34-.384.51-.575.339-.381.5-.573.325-.384.477-.58.3-.393.429-.6l.21-.29.205-.284.2-.278.2-.271.166-.282.161-.273.156-.264.151-.254.28-.476c.089-.151.172-.3.248-.432s.146-.265.207-.386.113-.235.155-.34l.126-.272.093-.2.058-.124.02-.042h0l.088-.224.2-.5.289-.731.368-.929.164-.578.176-.618.186-.653.194-.683c.037-.238.08-.479.126-.722s.093-.49.139-.739.089-.5.126-.752.068-.507.088-.763.038-.512.059-.767.041-.509.057-.761.028-.5.032-.749,0-.492-.016-.733q-.005-.18-.009-.357t-.008-.351q0-.174-.007-.343t-.006-.335q-.019-.165-.037-.325l-.035-.314-.034-.3q-.017-.149-.033-.292c-.022-.19-.043-.371-.063-.544s-.04-.336-.061-.489-.043-.3-.066-.428-.05-.253-.079-.362h0v-.007a.038.038,0,0,1,0-.006h0l-.01-.044-.009-.041-.009-.039-.008-.038-.043-.2-.059-.269-.074-.336-.089-.4c-.018-.111-.043-.227-.074-.347s-.067-.245-.107-.374-.083-.264-.128-.4-.092-.283-.138-.433-.1-.3-.148-.46-.1-.321-.158-.487-.116-.335-.184-.507-.141-.345-.225-.519a22.246,22.246,0,0,0-1.05-2.252,26.591,26.591,0,0,0-1.434-2.375,26.911,26.911,0,0,0-1.792-2.36,24.342,24.342,0,0,0-2.124-2.206,22.746,22.746,0,0,0-2.384-1.924,26.073,26.073,0,0,0-2.518-1.562,27.239,27.239,0,0,0-2.5-1.2,24.469,24.469,0,0,0-2.336-.847c-.186-.05-.367-.1-.544-.153l-.519-.151c-.169-.048-.334-.094-.495-.136s-.318-.078-.472-.108l-.446-.08-.416-.074-.384-.068L36.728,7.5q-.166-.032-.313-.058T36.138,7.4q-.129-.019-.24-.03t-.2-.014l-.16-.013-.116-.009-.07,0-.024,0L36.031,0a32.7,32.7,0,0,1,4.95.829,31.522,31.522,0,0,1,4.59,1.521A32.084,32.084,0,0,1,49.8,4.5a34.181,34.181,0,0,1,3.863,2.728l.083.066.1.082.1.083.081.069.36.3c.117.1.231.193.345.29s.226.195.34.3.228.2.345.314a.12.12,0,0,1,.02.027c.007.012.014.025.021.04l.021.041a.269.269,0,0,0,.018.031l.193.189.141.138.086.084.029.028V9.3l.034.03.033.031.032.032.031.033.033.033.034.034.034.034.035.035c.165.166.35.355.547.563s.407.434.624.675.44.5.663.761.447.541.664.822c.2.233.381.474.557.716s.344.484.5.72.312.467.456.684.282.423.414.609c.066.093.127.184.183.271s.107.171.154.251.09.155.129.225l.106.193.086.156.064.115.04.071.014.024.042-.025a32.169,32.169,0,0,1,4.244,14.1l0,.023,0,.024c0,.008,0,.016,0,.024s0,.016,0,.023q.015.237.026.474t.018.476q.007.239.011.478t0,.48Z" transform="translate(7.35 7.499)" fill="#0101fd"/>
          <path id="Path_23801" data-name="Path 23801" d="M18.186,7.626a11,11,0,0,0-2.107.2A9.751,9.751,0,0,0,12.347,9.4a11.26,11.26,0,0,0-1.625,1.381A11.487,11.487,0,0,0,9.369,12.46,10.342,10.342,0,0,0,8.4,14.3a10.484,10.484,0,0,0-.579,2.006,12.3,12.3,0,0,0,0,4.342,10.489,10.489,0,0,0,.58,2.006A10.362,10.362,0,0,0,9.37,24.5a11.515,11.515,0,0,0,1.352,1.677,11.259,11.259,0,0,0,1.625,1.381,9.75,9.75,0,0,0,3.733,1.579,11,11,0,0,0,2.107.2,11.313,11.313,0,0,0,2.544-.277A9.576,9.576,0,0,0,23,28.221a9.754,9.754,0,0,0,2-1.387,11.881,11.881,0,0,0,1.732-1.942L32.951,29.3a20.412,20.412,0,0,1-2.983,3.352,16.792,16.792,0,0,1-3.455,2.394,16.532,16.532,0,0,1-3.927,1.437,19.583,19.583,0,0,1-4.4.479,18.982,18.982,0,0,1-3.628-.339A16.818,16.818,0,0,1,8.129,33.91,20.371,20.371,0,0,1,3,28.7,17.346,17.346,0,0,1,.333,22.171a20.618,20.618,0,0,1,0-7.381A17.346,17.346,0,0,1,3,8.263,20.4,20.4,0,0,1,8.129,3.051,16.806,16.806,0,0,1,14.558.339,19,19,0,0,1,18.186,0a19.583,19.583,0,0,1,4.4.479,16.532,16.532,0,0,1,3.927,1.437A16.792,16.792,0,0,1,29.969,4.31a20.412,20.412,0,0,1,2.983,3.352L26.737,12.07a11.85,11.85,0,0,0-1.73-1.942,9.747,9.747,0,0,0-2-1.387,9.58,9.58,0,0,0-2.274-.832,11.318,11.318,0,0,0-2.545-.277Z" transform="translate(21.849 21.737)" fill="#00003d"/>
        </g>
      </g>
    </g>
    <g id="Group_32336" data-name="Group 32336" transform="translate(382.982 160.471)">
      <g id="Layer_1-2-2" data-name="Layer_1-2" transform="translate(1.017 81.552)">
        <g id="Group_32314" data-name="Group 32314">
          <g id="Group_32313" data-name="Group 32313">
            <path id="Path_33416" data-name="Path 33416" d="M11.261,4.722a6.823,6.823,0,0,0-1.3.122,6.028,6.028,0,0,0-2.311.977,6.97,6.97,0,0,0-1.006.855A7.13,7.13,0,0,0,5.8,7.714a6.41,6.41,0,0,0-.6,1.14A6.491,6.491,0,0,0,4.847,10.1a7.618,7.618,0,0,0,0,2.687A6.491,6.491,0,0,0,5.2,14.024a6.411,6.411,0,0,0,.6,1.14A7.13,7.13,0,0,0,6.639,16.2a6.97,6.97,0,0,0,1.006.855,6.028,6.028,0,0,0,2.311.977,6.823,6.823,0,0,0,1.3.122,6.994,6.994,0,0,0,1.575-.172,5.927,5.927,0,0,0,1.407-.516,6.034,6.034,0,0,0,1.239-.859,7.335,7.335,0,0,0,1.07-1.2L20.4,18.133a12.637,12.637,0,0,1-1.847,2.075,10.4,10.4,0,0,1-2.139,1.482,10.235,10.235,0,0,1-2.431.889,12.118,12.118,0,0,1-2.724.3,11.745,11.745,0,0,1-2.245-.21,10.417,10.417,0,0,1-3.98-1.679,12.6,12.6,0,0,1-3.177-3.225,10.742,10.742,0,0,1-1.65-4.041,12.745,12.745,0,0,1,0-4.568,10.742,10.742,0,0,1,1.65-4.041A12.063,12.063,0,0,1,3.3,3.357a12,12,0,0,1,1.734-1.47A10.4,10.4,0,0,1,9.013.21,11.764,11.764,0,0,1,11.258,0a12.118,12.118,0,0,1,2.724.3,10.235,10.235,0,0,1,2.431.889,10.4,10.4,0,0,1,2.139,1.482A12.637,12.637,0,0,1,20.4,4.744L16.552,7.47a7.367,7.367,0,0,0-1.071-1.2,6.042,6.042,0,0,0-1.239-.859,5.923,5.923,0,0,0-1.406-.516A6.99,6.99,0,0,0,11.261,4.722Z" transform="translate(0 7.064)" fill="#00003d"/>
            <path id="Path_33417" data-name="Path 33417" d="M22.513,22.655H17.792V20.721a11.556,11.556,0,0,1-1.507.944,10.54,10.54,0,0,1-3.267,1.078,11.346,11.346,0,0,1-1.759.135,11.746,11.746,0,0,1-2.245-.21,10.417,10.417,0,0,1-3.98-1.679,12.6,12.6,0,0,1-3.177-3.225,10.742,10.742,0,0,1-1.65-4.041,12.746,12.746,0,0,1,0-4.568,10.742,10.742,0,0,1,1.65-4.041A12.061,12.061,0,0,1,3.3,3.357a12,12,0,0,1,1.734-1.47A10.4,10.4,0,0,1,9.013.21,11.763,11.763,0,0,1,11.258,0a11.439,11.439,0,0,1,1.759.133A10.613,10.613,0,0,1,16.284,1.2a11.59,11.59,0,0,1,1.507.935V.225h4.722Zm-11.255-4.5a6.754,6.754,0,0,0,1.3-.122,6.065,6.065,0,0,0,1.2-.366,6.182,6.182,0,0,0,1.108-.611,6.939,6.939,0,0,0,1.851-1.894,6.41,6.41,0,0,0,.6-1.14,6.491,6.491,0,0,0,.358-1.242,7.608,7.608,0,0,0,0-2.687,6.5,6.5,0,0,0-.359-1.242,6.429,6.429,0,0,0-.6-1.14,6.914,6.914,0,0,0-1.85-1.894,6.182,6.182,0,0,0-1.108-.61,6.065,6.065,0,0,0-1.2-.366,6.973,6.973,0,0,0-2.6,0,6.14,6.14,0,0,0-1.209.366,6.216,6.216,0,0,0-1.115.61,7.041,7.041,0,0,0-1.017.855,7.124,7.124,0,0,0-.828,1.039A6.438,6.438,0,0,0,5.2,8.854,6.543,6.543,0,0,0,4.843,10.1a7.689,7.689,0,0,0,0,2.687A6.543,6.543,0,0,0,5.2,14.024a6.438,6.438,0,0,0,.591,1.14,6.73,6.73,0,0,0,1.843,1.894,6.182,6.182,0,0,0,1.112.611,6.1,6.1,0,0,0,1.208.366A6.84,6.84,0,0,0,11.258,18.156Z" transform="translate(21.677 7.064)" fill="#00003d"/>
            <path id="Path_33418" data-name="Path 33418" d="M4.624,1.873a10.363,10.363,0,0,1,1.327-.819,9.468,9.468,0,0,1,1.4-.585A9.32,9.32,0,0,1,8.811.117,9.908,9.908,0,0,1,10.344,0h2.321V4.622H10.344A5.276,5.276,0,0,0,9.2,4.742a4.873,4.873,0,0,0-1.055.363,5.258,5.258,0,0,0-.971.6,6.491,6.491,0,0,0-.888.846,6.964,6.964,0,0,0-.73,1.016A6.594,6.594,0,0,0,5.04,8.684a6.906,6.906,0,0,0-.314,1.209,7.934,7.934,0,0,0-.1,1.3V22.433H0V0H4.621V1.873Z" transform="translate(47.419 7.287)" fill="#00003d"/>
            <path id="Path_33419" data-name="Path 33419" d="M11.275,7.145a11.678,11.678,0,0,1,2.238.21,10.467,10.467,0,0,1,2.073.63,10.626,10.626,0,0,1,1.907,1.049A12.176,12.176,0,0,1,19.234,10.5a12.062,12.062,0,0,1,1.443,1.757,10.742,10.742,0,0,1,1.65,4.041,12.729,12.729,0,0,1,0,4.565,10.672,10.672,0,0,1-1.65,4.026,12.11,12.11,0,0,1-1.443,1.752,12.186,12.186,0,0,1-1.742,1.479,10.586,10.586,0,0,1-1.907,1.056,10.406,10.406,0,0,1-2.072.633,11.623,11.623,0,0,1-2.239.211,11.328,11.328,0,0,1-1.768-.136A10.5,10.5,0,0,1,6.23,28.8a11.519,11.519,0,0,1-1.509-.954v1.893H0V0H4.722V9.282A11.553,11.553,0,0,1,6.23,8.347,10.638,10.638,0,0,1,9.507,7.278,11.545,11.545,0,0,1,11.275,7.145Zm0,18.156a6.656,6.656,0,0,0,1.3-.123,5.965,5.965,0,0,0,1.2-.37,6.091,6.091,0,0,0,1.1-.617,7.047,7.047,0,0,0,1-.863,7.2,7.2,0,0,0,.846-1.037,6.336,6.336,0,0,0,.967-2.371,7.454,7.454,0,0,0,0-2.674,6.4,6.4,0,0,0-.967-2.385,7.12,7.12,0,0,0-.846-1.04,7.012,7.012,0,0,0-1.005-.864,6.078,6.078,0,0,0-1.1-.617,5.968,5.968,0,0,0-1.2-.37,6.665,6.665,0,0,0-1.294-.123,6.744,6.744,0,0,0-1.3.123,6.111,6.111,0,0,0-2.329.987,6.877,6.877,0,0,0-1.012.863A7.129,7.129,0,0,0,5.8,14.859,6.41,6.41,0,0,0,5.2,16a6.491,6.491,0,0,0-.358,1.241,7.6,7.6,0,0,0,0,2.684A6.34,6.34,0,0,0,5.8,22.292a7.205,7.205,0,0,0,.837,1.036,6.939,6.939,0,0,0,1.008.864,6.02,6.02,0,0,0,2.321.986A6.841,6.841,0,0,0,11.275,25.3Z" transform="translate(61.487)" fill="#00003d"/>
            <path id="Path_33420" data-name="Path 33420" d="M11.258,0A11.677,11.677,0,0,1,13.5.21a10.466,10.466,0,0,1,2.072.63,10.626,10.626,0,0,1,1.907,1.049,12.176,12.176,0,0,1,1.742,1.468A12.064,12.064,0,0,1,20.66,5.114a10.742,10.742,0,0,1,1.65,4.041,12.744,12.744,0,0,1,0,4.568,10.742,10.742,0,0,1-1.65,4.041,12.063,12.063,0,0,1-1.443,1.757,12.157,12.157,0,0,1-1.742,1.47,10.6,10.6,0,0,1-1.907,1.049,10.455,10.455,0,0,1-2.072.629,12.061,12.061,0,0,1-4.479,0,10.449,10.449,0,0,1-3.983-1.679A11.994,11.994,0,0,1,3.3,19.52a12.062,12.062,0,0,1-1.443-1.757,10.742,10.742,0,0,1-1.65-4.041,12.746,12.746,0,0,1,0-4.568,10.742,10.742,0,0,1,1.65-4.041A12.063,12.063,0,0,1,3.3,3.357a12,12,0,0,1,1.734-1.47A10.4,10.4,0,0,1,9.013.21,11.763,11.763,0,0,1,11.258,0Zm0,18.156a6.754,6.754,0,0,0,1.3-.122,6.065,6.065,0,0,0,1.2-.366,6.183,6.183,0,0,0,1.108-.61,6.935,6.935,0,0,0,1.851-1.894,6.411,6.411,0,0,0,.6-1.14,6.491,6.491,0,0,0,.358-1.242,7.606,7.606,0,0,0,0-2.687,6.5,6.5,0,0,0-.359-1.242,6.43,6.43,0,0,0-.6-1.14,6.911,6.911,0,0,0-1.85-1.894,6.183,6.183,0,0,0-1.108-.61,6.065,6.065,0,0,0-1.2-.366,6.972,6.972,0,0,0-2.6,0,6.141,6.141,0,0,0-1.209.366,6.217,6.217,0,0,0-1.115.61,7.041,7.041,0,0,0-1.017.855,7.125,7.125,0,0,0-.828,1.039A6.44,6.44,0,0,0,5.2,8.854,6.544,6.544,0,0,0,4.843,10.1a7.689,7.689,0,0,0,0,2.687A6.544,6.544,0,0,0,5.2,14.024a6.44,6.44,0,0,0,.591,1.14,6.719,6.719,0,0,0,1.844,1.894,6.19,6.19,0,0,0,1.112.61,6.111,6.111,0,0,0,1.209.366A6.832,6.832,0,0,0,11.258,18.156Z" transform="translate(86.026 7.064)" fill="#00003d"/>
            <path id="Path_33421" data-name="Path 33421" d="M10.346,0a10.081,10.081,0,0,1,2.059.206,9.14,9.14,0,0,1,1.9.619,9.525,9.525,0,0,1,1.749,1.031A11.29,11.29,0,0,1,17.653,3.3a11.729,11.729,0,0,1,1.326,1.724,10.837,10.837,0,0,1,.948,1.894A11.2,11.2,0,0,1,20.5,8.981a12.846,12.846,0,0,1,.19,2.235V22.88h-4.6V11.216A7.951,7.951,0,0,0,15.98,9.9a6.886,6.886,0,0,0-.317-1.215,6.556,6.556,0,0,0-.528-1.116A6.926,6.926,0,0,0,14.4,6.556a6.458,6.458,0,0,0-.887-.846,5.251,5.251,0,0,0-.971-.6,4.877,4.877,0,0,0-1.055-.363,5.429,5.429,0,0,0-2.279,0,4.873,4.873,0,0,0-1.055.363,5.257,5.257,0,0,0-.971.6,6.489,6.489,0,0,0-.887.846,6.929,6.929,0,0,0-.73,1.017A6.594,6.594,0,0,0,5.04,8.688,6.951,6.951,0,0,0,4.726,9.9a8.037,8.037,0,0,0-.1,1.314V22.88H0V.447H4.622V1.873a10.363,10.363,0,0,1,1.327-.819,9.468,9.468,0,0,1,1.4-.585A9.32,9.32,0,0,1,8.808.117,9.908,9.908,0,0,1,10.341,0Z" transform="translate(111.257 6.839)" fill="#00003d"/>
            <path id="Path_33422" data-name="Path 33422" d="M4.719,10.358a6.374,6.374,0,0,0,.1,1.167A5.6,5.6,0,0,0,5.136,12.6a5.531,5.531,0,0,0,.522.989,6.59,6.59,0,0,0,1.608,1.656,5.308,5.308,0,0,0,.964.541,5.225,5.225,0,0,0,1.051.325,5.841,5.841,0,0,0,1.137.108,5.922,5.922,0,0,0,1.137-.107,5.256,5.256,0,0,0,2.015-.855,6.074,6.074,0,0,0,.877-.748,6.294,6.294,0,0,0,.73-.908,5.6,5.6,0,0,0,.836-2.076,6.375,6.375,0,0,0,.1-1.168q0-.066,0-.132t0-.132q0-.066-.006-.132T16.1,9.832V0h4.722V18.828a13.966,13.966,0,0,1-.226,2.31A11.71,11.71,0,0,1,20,23.245a10.832,10.832,0,0,1-.963,1.9,11.235,11.235,0,0,1-1.333,1.7,11.594,11.594,0,0,1-1.583,1.406,9.586,9.586,0,0,1-1.715,1,8.947,8.947,0,0,1-1.846.6,9.59,9.59,0,0,1-1.978.2,9.337,9.337,0,0,1-1.537-.127,9.738,9.738,0,0,1-1.517-.381,10.934,10.934,0,0,1-1.5-.636,13.011,13.011,0,0,1-1.476-.89,11.958,11.958,0,0,1-1.263-1.015,11.1,11.1,0,0,1-1.083-1.153,10.915,10.915,0,0,1-.9-1.29,11.406,11.406,0,0,1-.72-1.428l4.416-1.69a6.92,6.92,0,0,0,.423.788A6.573,6.573,0,0,0,6.547,23.6a7.027,7.027,0,0,0,.7.566,8.217,8.217,0,0,0,.849.516,6.431,6.431,0,0,0,.839.369,5.269,5.269,0,0,0,.829.222,4.637,4.637,0,0,0,.82.074,4.765,4.765,0,0,0,1.063-.117,4.55,4.55,0,0,0,.992-.351,5.076,5.076,0,0,0,.921-.585,6.423,6.423,0,0,0,.85-.819,6.565,6.565,0,0,0,.661-.907,6.641,6.641,0,0,0,.5-1.011,7.307,7.307,0,0,0,.337-1.116,8.621,8.621,0,0,0,.173-1.221,10.689,10.689,0,0,1-1.323.748,9.887,9.887,0,0,1-2.829.855,10.5,10.5,0,0,1-1.506.107,10.928,10.928,0,0,1-2.078-.193,9.66,9.66,0,0,1-3.684-1.547,11.1,11.1,0,0,1-1.6-1.353A11.208,11.208,0,0,1,1.719,16.2,9.941,9.941,0,0,1,.191,12.469,11.363,11.363,0,0,1,0,10.36V0H4.722V10.36Z" transform="translate(134.648 7.29)" fill="#00003d"/>
            <path id="Path_33423" data-name="Path 33423" d="M7.634,7.287h3.032v4.622H7.634V29.719H3.012V11.908H0V7.287H3.012V0H7.634Z" transform="translate(157.276)" fill="#00003d"/>
            <path id="Path_33424" data-name="Path 33424" d="M20.6,17.811a10.987,10.987,0,0,1-.756,1.027,10.662,10.662,0,0,1-.862.922,10.8,10.8,0,0,1-.969.817,11.405,11.405,0,0,1-1.076.713,11.338,11.338,0,0,1-1.34.695,10.62,10.62,0,0,1-2.839.793,11.23,11.23,0,0,1-1.5.1,11.746,11.746,0,0,1-2.245-.21,10.416,10.416,0,0,1-3.98-1.679,12.6,12.6,0,0,1-3.177-3.225,10.742,10.742,0,0,1-1.65-4.041,12.744,12.744,0,0,1,0-4.568,10.742,10.742,0,0,1,1.65-4.041A12.063,12.063,0,0,1,3.3,3.357a12,12,0,0,1,1.734-1.47A10.4,10.4,0,0,1,9.013.21,12.112,12.112,0,0,1,13.5.21a10.43,10.43,0,0,1,2.072.63,10.592,10.592,0,0,1,1.9,1.049,12.221,12.221,0,0,1,1.74,1.468A12.063,12.063,0,0,1,20.66,5.114a10.742,10.742,0,0,1,1.65,4.041,12.347,12.347,0,0,1,.206,2.284v1.934H5.133a6.932,6.932,0,0,0,.362,1.054,6.231,6.231,0,0,0,.514.945,6.118,6.118,0,0,0,.667.836,6.583,6.583,0,0,0,.82.727,6.67,6.67,0,0,0,.868.534,6.154,6.154,0,0,0,1.883.61,6.661,6.661,0,0,0,1.014.076,7.291,7.291,0,0,0,1.6-.169,5.874,5.874,0,0,0,1.409-.508,5.689,5.689,0,0,0,1.217-.846,6.7,6.7,0,0,0,1.024-1.184L20.6,17.811ZM17.383,9.079a7.092,7.092,0,0,0-.415-.921,6.507,6.507,0,0,0-1.181-1.567,6.9,6.9,0,0,0-.767-.646,6.672,6.672,0,0,0-.868-.534,6.154,6.154,0,0,0-1.883-.61,6.792,6.792,0,0,0-2.028,0,6.154,6.154,0,0,0-1.883.61,6.669,6.669,0,0,0-.868.534,6.9,6.9,0,0,0-.767.646A6.506,6.506,0,0,0,5.542,8.158a7.087,7.087,0,0,0-.415.921H17.383Z" transform="translate(169.242 7.064)" fill="#00003d"/>
          </g>
        </g>
      </g>
    </g>
  </g>
</svg>
