<svg id="Layer_1-2" xmlns="http://www.w3.org/2000/svg" width="257.99" height="275.253" viewBox="0 0 257.99 275.253">
  <g id="Group_30624" data-name="Group 30624">
    <g id="Group_30625" data-name="Group 30625">
      <path id="Path_23790" data-name="Path 23790" d="M257.98,69.53,236.195,81.958l-.143.086L236,81.96l-.137-.245-.219-.4-.294-.535c-.11-.2-.231-.422-.365-.662s-.281-.5-.442-.771-.338-.561-.53-.861-.4-.611-.628-.93c-.451-.639-.923-1.344-1.421-2.091s-1.019-1.538-1.568-2.349-1.125-1.642-1.731-2.47-1.241-1.655-1.909-2.456c-.746-.963-1.514-1.907-2.28-2.816s-1.532-1.785-2.276-2.611-1.464-1.6-2.141-2.318-1.31-1.364-1.878-1.937l-.12-.12-.117-.117-.116-.116-.115-.115-.107-.113-.108-.109-.11-.106q-.056-.052-.113-.1v.019l-.1-.1-.3-.288-.487-.472-.669-.65c-.019-.024-.039-.046-.059-.068s-.041-.043-.062-.063l-.063-.059-.064-.058c-.248-.243-.518-.51-.814-.8s-.617-.594-.966-.916-.729-.661-1.14-1.011-.855-.712-1.334-1.082l-.172-.137-.173-.139-.175-.139-.177-.137-.223-.187-.226-.188-.228-.186q-.114-.092-.229-.182-.626-.511-1.3-1.059t-1.4-1.12q-.723-.572-1.5-1.163t-1.6-1.188c-.765-.489-1.548-1.007-2.353-1.543s-1.631-1.089-2.484-1.648-1.733-1.124-2.643-1.684-1.853-1.113-2.83-1.65c-1.955-1.068-4.018-2.14-6.182-3.187s-4.431-2.071-6.793-3.044-4.821-1.9-7.371-2.74-5.19-1.612-7.915-2.275q-3.563-.858-7.275-1.5t-7.525-1.055q-3.812-.411-7.7-.582t-7.8-.085c-.377.007-.753.011-1.129.015s-.751.007-1.127.012-.751.013-1.127.025-.752.029-1.129.053c-2.976.222-5.939.564-8.871,1.016s-5.835,1.014-8.69,1.675-5.662,1.421-8.405,2.271-5.421,1.787-8.018,2.8q-1.434.544-2.826,1.13T90.9,35.46q-1.35.621-2.66,1.274t-2.579,1.329q-2.218,1.18-4.309,2.421t-4.061,2.5q-1.969,1.263-3.817,2.528t-3.58,2.5Q68.6,49.084,67.355,50.1t-2.426,1.995c-.785.653-1.544,1.3-2.271,1.932s-1.42,1.269-2.073,1.9l-1.85,1.878-1.724,1.751-1.589,1.615-1.447,1.47q-.293.361-.574.7l-.546.665-.516.627q-.25.3-.482.59l-.029.048c-.246.286-.482.575-.714.865s-.458.582-.682.876-.448.588-.673.883-.453.591-.687.886q-2.733,3.555-5.164,7.3t-4.548,7.6q-2.117,3.854-3.913,7.78c-1.2,2.611-2.284,5.233-3.259,7.846q-1.055,2.754-1.9,5.495t-1.517,5.436q-.672,2.7-1.192,5.329t-.923,5.173q-.147.941-.279,1.87t-.254,1.843q-.121.914-.23,1.811t-.21,1.773q-.018.125-.034.25t-.031.249q-.015.124-.03.248l-.029.245q0,.1-.007.2t-.006.2q0,.1,0,.194t0,.193q-.054,1.309-.111,2.576t-.1,2.488q-.047,1.221-.075,2.393t-.025,2.292q0,.218.007.431t.009.422q.005.209.013.415t.018.41c0,.024,0,.047.006.07s0,.046,0,.068,0,.045,0,.068,0,.046.006.07c.057.88.127,1.73.2,2.55s.155,1.61.233,2.369.154,1.489.221,2.187.124,1.366.164,2c.205,1.29.372,2.449.507,3.462s.238,1.879.316,2.584.129,1.249.162,1.617.046.559.046.559c.014.069.028.137.042.2l.041.2c.014.067.028.134.042.2s.03.135.047.2l.023.113.026.123.028.134q.014.07.028.145c0,.036.011.072.017.107s.014.072.022.108l.024.11c.008.037.016.075.023.113l.007.044c0,.015.006.031.009.046s.008.031.013.046a.339.339,0,0,0,.018.044q.093.454.19.907t.2.9q.1.451.2.9t.211.9c.024.119.049.238.076.358s.054.238.082.357l.084.355c.028.118.055.235.082.352s.054.259.083.39.06.264.091.4.063.271.094.41.063.279.094.422q.046.139.092.282l.091.288q.046.145.093.291t.1.293l.286.913.3.949.309.981.318,1.01.122.406.123.4q.062.2.124.4t.127.406q.114.372.238.748t.255.755q.131.379.271.762t.286.769q.054.147.109.292t.112.291l.113.293.114.3.177.449.176.443q.088.22.176.436t.177.427q.172.418.35.839t.361.844q.182.424.368.852t.371.861q.029.057.056.114l.053.114.051.114.05.114c0,.014.01.028.016.041l.018.04.018.04c.006.013.011.027.016.041l.28.633.282.638.282.642q.141.321.28.644c.031.069.061.137.09.2l.086.2.086.2c.029.067.059.135.09.2l.122.229.123.229.124.229q.063.114.127.229a.3.3,0,0,0,.016.033l.017.029a.3.3,0,0,1,.015.029.166.166,0,0,1,.01.033.551.551,0,0,0,.028.061c.011.022.025.045.04.071l.049.084c.017.03.036.063.055.1l.24.463q.118.227.234.445t.228.427q.113.209.224.41.161.293.321.59l.321.594q.161.3.324.6t.331.6l.065.122.066.123q.034.062.07.124t.075.127l.227.409.18.324.131.237.082.146a.028.028,0,0,1,.006.009l0,.011,0,.013a.1.1,0,0,0,.006.014l.279.485.28.483.282.483.285.485.013.021.011.02.011.019a.1.1,0,0,0,.013.016q.451.755.916,1.5t.95,1.489q.484.74.987,1.471t1.029,1.45l.321.458.32.457q.16.228.321.455t.326.452a.121.121,0,0,1,.013.016l.012.018.014.018a.1.1,0,0,0,.018.016c.033.052.068.1.1.157s.071.1.108.156l.11.155.109.152a99.563,99.563,0,0,0,16.238,18.077,105.721,105.721,0,0,0,20.17,13.817,112.089,112.089,0,0,0,23.2,9.092,117.272,117.272,0,0,0,25.322,3.9l.46.021.463.019.467.016q.234.007.47.01l.252.007.256.006.259,0,.263,0,.508.012.509.009.511.005.513,0h.372l.735,0q.367,0,.732-.007t.731-.015q.365-.009.73-.024,1.173-.036,2.348-.1t2.351-.152q1.176-.09,2.353-.211t2.353-.274c3-.32,5.984-.778,8.917-1.354s5.82-1.269,8.638-2.057,5.569-1.673,8.23-2.632,5.233-1.991,7.694-3.076q1.864-.823,3.644-1.681t3.46-1.744q1.679-.886,3.249-1.8t3.011-1.837c1.416-.94,2.773-1.847,4.055-2.722s2.492-1.717,3.614-2.526,2.157-1.585,3.091-2.327,1.768-1.451,2.489-2.126l1.99-1.75,1.467-1.293.907-.8.31-.275.2.21,17.14,18.17-.382.336-1.112.98-1.794,1.581-2.426,2.139c-.887.816-1.909,1.68-3.053,2.589s-2.408,1.863-3.779,2.857-2.849,2.029-4.419,3.1-3.233,2.179-4.974,3.319q-1.982,1.27-4.146,2.519t-4.49,2.461q-2.326,1.212-4.8,2.377t-5.085,2.267c-2.892,1.219-5.9,2.373-9.006,3.443s-6.3,2.055-9.567,2.933-6.6,1.651-9.986,2.3-6.811,1.163-10.261,1.533a122.525,122.525,0,0,1-16.52.931,138.939,138.939,0,0,1-15.964-1.09,143.217,143.217,0,0,1-14.764-2.646,126.705,126.705,0,0,1-12.919-3.737c-1.984-.663-3.864-1.35-5.635-2.041s-3.435-1.388-4.987-2.071-2.992-1.351-4.316-1.987-2.533-1.238-3.623-1.789q-.826-.393-1.55-.762t-1.346-.707q-.621-.338-1.14-.642t-.933-.569l-.612-.368-.477-.288-.343-.205q-.138-.082-.209-.121l-.079-.031c-.052-.021-.13-.054-.231-.1s-.227-.1-.374-.172-.317-.154-.508-.251-.4-.2-.635-.328-.484-.262-.754-.415-.558-.322-.863-.506-.626-.385-.962-.6c-.672-.436-1.418-.916-2.223-1.446s-1.671-1.109-2.583-1.745-1.873-1.327-2.868-2.081-2.024-1.57-3.076-2.455c-2.187-1.655-4.472-3.56-6.8-5.673s-4.7-4.436-7.057-6.926-4.7-5.148-6.977-7.933-4.48-5.7-6.559-8.694c-1.073-1.481-2.092-2.994-3.067-4.525s-1.906-3.081-2.8-4.634-1.756-3.111-2.59-4.659-1.643-3.086-2.434-4.6c-.692-1.559-1.374-3.093-2.033-4.6s-1.294-2.981-1.89-4.427-1.154-2.861-1.657-4.243-.954-2.731-1.335-4.045q-.308-.977-.6-1.911L5.741,177.4,5.2,175.664l-.515-1.643-.359-1.571-.334-1.462q-.161-.7-.309-1.348t-.284-1.228l-.446-2.076L2.619,164.8l-.2-.953-.07-.327s-.041-.235-.117-.686-.186-1.119-.324-1.985-.3-1.929-.492-3.172-.4-2.665-.621-4.249Q.7,152.233.6,150.909t-.193-2.77q-.1-1.445-.187-3.006t-.174-3.228c-.041-1.111-.052-2.259-.044-3.442s.038-2.4.08-3.65.1-2.531.155-3.843.122-2.653.182-4.022c.286-2.714.63-5.544,1.06-8.463s.948-5.927,1.582-8.994,1.385-6.2,2.283-9.356,1.942-6.352,3.163-9.547c1.178-3.169,2.491-6.347,3.935-9.509s3.019-6.312,4.721-9.423,3.533-6.185,5.487-9.2,4.032-5.968,6.231-8.839l-.067-.057s.14-.181.415-.528.684-.862,1.222-1.53,1.206-1.489,2-2.449S34.153,47,35.185,45.77q.826-.869,1.747-1.824t1.934-1.989q1.013-1.034,2.118-2.143t2.3-2.286q1.2-1.159,2.536-2.33t2.773-2.373q1.439-1.2,2.968-2.444t3.121-2.544q2.064-1.492,4.274-3.014t4.563-3.036q2.354-1.513,4.85-3T73.5,15.9q1.6-.862,3.257-1.692t3.363-1.619q1.708-.79,3.47-1.535t3.579-1.44q4.757-1.846,9.794-3.4t10.273-2.759q5.236-1.206,10.629-2.039c3.589-.55,7.216-.967,10.862-1.237.446-.026.891-.044,1.335-.057S130.95.1,131.393.092l1.331-.019c.444-.007.889-.016,1.335-.03h0q4.811-.118,9.6.083t9.48.7q4.695.5,9.266,1.3t8.953,1.864c3.341.813,6.573,1.75,9.692,2.781s6.124,2.154,9.01,3.339,5.654,2.434,8.3,3.713,5.165,2.59,7.556,3.9c1.195.656,2.348,1.331,3.463,2.013s2.194,1.371,3.239,2.054,2.057,1.359,3.04,2.016,1.938,1.295,2.868,1.9q1.356.976,2.594,1.932t2.368,1.861c.754.6,1.472,1.189,2.157,1.748s1.338,1.093,1.961,1.594c.582.458,1.123.906,1.625,1.338s.968.85,1.4,1.247.826.774,1.191,1.125.7.678,1,.973c.06.055.567.524,1.391,1.322s1.964,1.924,3.289,3.292,2.836,2.98,4.4,4.748,3.182,3.693,4.722,5.689c.813.985,1.591,2,2.335,3.011s1.453,2.028,2.128,3.018,1.317,1.954,1.926,2.867,1.185,1.775,1.728,2.56c.274.393.528.776.762,1.144s.449.722.647,1.057.379.652.544.946.315.566.451.812l.362.649.266.479.164.3.056.1Z" fill="#00003d"/>
      <path id="Path_23791" data-name="Path 23791" d="M225.752,111.5v.286a111.944,111.944,0,0,1-.727,12.448,109.694,109.694,0,0,1-9.918,34.642.06.06,0,0,1,0,.007.022.022,0,0,1,0,.007l-.006.007-.011.007q-2.332,4.915-5.125,9.579t-6.009,9.036q-3.216,4.372-6.835,8.43t-7.6,7.76l-.2-.21-.312.275-.909.8-1.467,1.293-1.986,1.75c-.72.675-1.554,1.384-2.489,2.126s-1.969,1.518-3.091,2.327-2.331,1.651-3.613,2.526-2.639,1.782-4.055,2.722q-1.441.926-3.011,1.837t-3.249,1.8q-1.679.886-3.46,1.744t-3.644,1.681c-2.461,1.087-5.033,2.121-7.7,3.08s-5.413,1.843-8.233,2.631-5.706,1.48-8.639,2.055-5.911,1.033-8.913,1.352q-1.177.15-2.355.269t-2.355.209q-1.177.09-2.351.154t-2.344.1l-.73.02-.731.015-.732.01q-.367,0-.735,0h-.372l-.513,0-.511-.005-.509-.009-.508-.013-.262,0-.257,0-.255-.006-.256-.007-.466-.009-.467-.014q-.233-.008-.465-.019t-.461-.025a117.272,117.272,0,0,1-25.322-3.9,112.09,112.09,0,0,1-23.2-9.092,105.722,105.722,0,0,1-20.17-13.817,99.564,99.564,0,0,1-16.238-18.077l-.109-.157-.11-.156-.108-.155-.1-.152a.123.123,0,0,1-.013-.016l-.012-.018-.014-.018a.1.1,0,0,0-.018-.016q-.758-1.091-1.464-2.122t-1.354-2q-.648-.968-1.237-1.873t-1.115-1.741l-.007-.016-.009-.019a.191.191,0,0,0-.013-.02.177.177,0,0,0-.018-.021L16,170.3l-.282-.483-.28-.483-.279-.485a.028.028,0,0,1-.006-.009l0-.011,0-.013a.1.1,0,0,0-.006-.014l-.082-.146-.131-.237-.18-.324-.227-.409q-.029-.057-.061-.116t-.067-.121l-.072-.126-.077-.133c-.045-.091-.094-.184-.146-.279s-.106-.194-.163-.3l-.175-.313q-.09-.161-.183-.333-.075-.132-.151-.27l-.153-.281-.159-.292q-.081-.148-.167-.3-.111-.2-.224-.41t-.228-.427q-.115-.218-.234-.445l-.24-.463c-.019-.036-.038-.069-.055-.1l-.049-.084c-.015-.026-.028-.049-.04-.071a.551.551,0,0,1-.028-.061.238.238,0,0,0-.009-.033.254.254,0,0,0-.013-.029l-.016-.029-.02-.033q-.107-.2-.214-.413t-.213-.425q-.106-.216-.209-.437t-.2-.451q-.14-.322-.281-.644l-.282-.642-.282-.638-.28-.633c0-.014-.01-.028-.016-.041l-.018-.04-.018-.04c-.006-.013-.011-.027-.016-.041l-.05-.114-.051-.114-.053-.114q-.027-.057-.056-.114-.19-.433-.375-.861t-.367-.852q-.182-.424-.358-.844t-.349-.839q-.089-.215-.177-.431t-.176-.436l-.176-.441-.177-.447-.109-.288L7.172,152l-.113-.3-.114-.3q-.136-.368-.269-.744t-.263-.755q-.131-.38-.26-.764t-.258-.77l-.122-.4-.123-.4-.124-.406-.127-.412-.318-1.01-.309-.981-.3-.949-.286-.913q-.1-.34-.191-.683t-.187-.69q-.092-.347-.181-.7t-.175-.7c-.026-.117-.054-.234-.082-.351l-.084-.353c-.028-.118-.056-.237-.082-.356s-.052-.24-.076-.362q-.05-.207-.1-.408t-.088-.394q-.043-.194-.085-.382t-.085-.37q-.064-.293-.124-.571l-.115-.536c-.037-.172-.073-.338-.108-.5s-.069-.307-.1-.448c0-.017-.009-.033-.013-.05L2.3,135c0-.016-.007-.03-.011-.044a.375.375,0,0,0-.013-.039c0-.041-.011-.08-.017-.118s-.014-.076-.022-.112-.016-.072-.024-.107-.016-.069-.023-.1c-.012-.05-.023-.1-.032-.145s-.019-.091-.027-.134l-.024-.123c-.007-.039-.015-.077-.022-.113-.017-.069-.033-.137-.048-.2s-.03-.134-.045-.2-.028-.134-.041-.2-.026-.135-.038-.2c0,0-.013-.192-.046-.56s-.084-.913-.162-1.619-.181-1.573-.316-2.585-.3-2.17-.507-3.458c-.041-.637-.1-1.3-.164-2S.58,121.5.5,120.743s-.158-1.549-.233-2.369-.145-1.67-.2-2.55q-.007-.247-.016-.492t-.018-.489q-.009-.244-.018-.487T0,113.868q0-1.12.025-2.29T.1,109.187q.046-1.22.1-2.487t.111-2.58q.018-.233.034-.46t.034-.45q.017-.223.035-.441t.04-.433q.1-.876.206-1.773t.231-1.811q.122-.914.256-1.843t.281-1.87l24.838,3.853-.028.168c-.019.111-.047.276-.084.491s-.083.481-.137.793-.118.672-.189,1.075c-.031.405-.066.854-.1,1.342l-.122,1.579c-.044.564-.09,1.164-.138,1.8s-.1,1.3-.152,2c-.074.694-.109,1.418-.12,2.167s0,1.526.024,2.324.053,1.619.079,2.458.046,1.7.046,2.57c.081.866.162,1.748.249,2.641s.181,1.8.287,2.707.225,1.825.362,2.74.294,1.829.475,2.738.385,1.818.582,2.722.4,1.8.617,2.691.446,1.766.7,2.627.523,1.706.823,2.528c.238.842.5,1.659.772,2.45s.56,1.558.852,2.3.59,1.457.884,2.147.587,1.355.868,1.994q.247.626.5,1.2t.506,1.107q.253.53.5,1.016t.494.929q.086.161.192.355l.23.419.262.478q.138.253.289.532h0c.017.033.033.065.05.1l.048.088c.015.029.03.057.044.085s.027.056.039.085q.157.279.324.583t.346.631l.371.678q.192.35.4.722c.515.858,1.1,1.8,1.754,2.82s1.385,2.1,2.191,3.244,1.691,2.336,2.658,3.569,2.017,2.5,3.154,3.8,2.374,2.587,3.683,3.9,2.7,2.639,4.177,3.944,3.037,2.594,4.684,3.841,3.382,2.452,5.207,3.592c.878.632,1.79,1.22,2.728,1.781s1.9,1.092,2.877,1.612,1.969,1.026,2.965,1.535,2,1.02,2.991,1.55c1.054.408,2.107.832,3.163,1.256s2.116.847,3.184,1.253,2.143.793,3.232,1.145,2.189.669,3.308.934a78.251,78.251,0,0,0,13.4,2.7,88.459,88.459,0,0,0,13.22.492,89.682,89.682,0,0,0,12.336-1.308,75.652,75.652,0,0,0,10.753-2.7l1.212-.4,1.187-.388,1.158-.377,1.126-.365,1.066-.458,1.037-.445,1.009-.432.98-.42q.976-.386,1.872-.784t1.708-.8q.813-.4,1.542-.8t1.373-.779l.126-.069.122-.066.122-.068.126-.074-.019-.029.54-.329,1.527-.931,2.375-1.448,3.083-1.88q.79-.594,1.644-1.239l1.76-1.33,1.858-1.4,1.939-1.464c.594-.577,1.211-1.148,1.84-1.721s1.269-1.149,1.907-1.735,1.275-1.182,1.9-1.8,1.231-1.249,1.813-1.909,1.167-1.319,1.751-1.974,1.165-1.309,1.73-1.966,1.115-1.319,1.637-1.989,1.017-1.35,1.472-2.044q.365-.5.721-.994l.7-.976.688-.954q.34-.471.673-.929l.57-.967.553-.938.535-.906q.263-.444.517-.87c.334-.57.656-1.115.96-1.634s.59-1.013.852-1.481.5-.91.709-1.326.387-.8.531-1.167l.433-.934.32-.688.2-.425.068-.146h.009l.3-.767.671-1.7c.28-.709.613-1.552.991-2.508s.8-2.026,1.262-3.187l.564-1.984.6-2.121.637-2.241.666-2.344c.126-.816.275-1.642.431-2.479s.319-1.682.475-2.536.305-1.715.433-2.582.233-1.741.3-2.618.131-1.759.2-2.633.139-1.746.194-2.61.1-1.722.108-2.571,0-1.688-.056-2.515q-.018-.619-.032-1.227t-.027-1.2q-.013-.6-.024-1.178t-.022-1.151q-.064-.565-.125-1.114t-.12-1.079q-.059-.53-.117-1.041t-.115-1c-.076-.651-.147-1.274-.217-1.866s-.138-1.152-.21-1.678-.146-1.017-.228-1.47-.17-.869-.271-1.243v0l0-.01a.121.121,0,0,1,0-.015.128.128,0,0,1,0-.02h0l-.034-.151-.031-.14-.03-.133-.029-.129-.148-.682-.2-.922q-.114-.52-.253-1.153t-.3-1.374c-.062-.382-.149-.778-.255-1.19s-.23-.84-.366-1.284-.285-.9-.44-1.382-.315-.972-.475-1.485-.336-1.035-.508-1.579-.35-1.1-.543-1.672-.4-1.151-.63-1.74-.485-1.184-.771-1.782a76.358,76.358,0,0,0-3.605-7.731,91.268,91.268,0,0,0-4.921-8.153,92.364,92.364,0,0,0-6.149-8.1,83.547,83.547,0,0,0-7.291-7.57,78.071,78.071,0,0,0-8.184-6.6,89.486,89.486,0,0,0-8.643-5.362,93.488,93.488,0,0,0-8.587-4.13,83.981,83.981,0,0,0-8.018-2.906c-.637-.172-1.258-.349-1.866-.526s-1.2-.351-1.78-.518-1.145-.324-1.7-.466-1.092-.268-1.619-.37L130,26.451l-1.428-.254-1.317-.232-1.2-.211q-.569-.111-1.076-.2t-.951-.153q-.444-.064-.822-.1t-.69-.049l-.548-.043-.4-.03-.242-.017-.082-.006L123.664,0a112.241,112.241,0,0,1,16.989,2.844,108.19,108.19,0,0,1,15.752,5.22,110.119,110.119,0,0,1,14.509,7.393,117.315,117.315,0,0,1,13.26,9.363l.284.225.349.283c.12.1.239.2.347.286s.2.172.279.236c.424.351.835.689,1.236,1.023s.794.664,1.184,1,.777.668,1.166,1.014.782.7,1.182,1.077a.412.412,0,0,1,.069.092c.024.04.049.087.073.136s.049.1.071.141a.926.926,0,0,0,.063.108l.664.65.484.472.3.288.1.1v-.019q.061.05.118.1t.113.106q.055.054.109.109l.108.113.115.115.116.115.117.117.12.12c.568.57,1.2,1.219,1.878,1.931s1.4,1.489,2.141,2.316,1.509,1.7,2.276,2.613,1.534,1.856,2.28,2.822c.67.8,1.307,1.627,1.913,2.456s1.182,1.66,1.731,2.47,1.07,1.6,1.566,2.349.969,1.452,1.419,2.091c.227.32.435.631.628.93s.369.588.53.861.308.531.442.771.255.462.365.662l.294.535.219.4.137.245.047.084.143-.086a110.41,110.41,0,0,1,14.565,48.4c0,.026,0,.053.007.08s0,.055.006.082,0,.055,0,.082,0,.054,0,.08q.05.812.088,1.627t.063,1.635q.025.819.038,1.642t.012,1.649Z" transform="translate(25.227 25.739)" fill="#0101fd"/>
      <path id="Path_23801" data-name="Path 23801" d="M62.418,26.173a37.737,37.737,0,0,0-7.23.678,33.466,33.466,0,0,0-12.812,5.419A38.646,38.646,0,0,0,36.8,37.008a39.426,39.426,0,0,0-4.643,5.755,35.5,35.5,0,0,0-3.314,6.32,35.983,35.983,0,0,0-1.987,6.885,42.215,42.215,0,0,0,0,14.9,36,36,0,0,0,1.989,6.885,35.564,35.564,0,0,0,3.315,6.32A39.52,39.52,0,0,0,36.8,89.831a38.643,38.643,0,0,0,5.578,4.739,33.465,33.465,0,0,0,12.812,5.419,37.739,37.739,0,0,0,7.23.678,38.828,38.828,0,0,0,8.733-.952,32.867,32.867,0,0,0,7.8-2.855,33.478,33.478,0,0,0,6.871-4.76,40.779,40.779,0,0,0,5.943-6.666L113.1,100.562a70.057,70.057,0,0,1-10.237,11.5A57.634,57.634,0,0,1,91,120.285a56.742,56.742,0,0,1-13.479,4.931,67.213,67.213,0,0,1-15.1,1.644,65.149,65.149,0,0,1-12.453-1.164,57.724,57.724,0,0,1-22.066-9.31A69.917,69.917,0,0,1,10.285,98.5,59.534,59.534,0,0,1,1.143,76.1a70.764,70.764,0,0,1,0-25.332,59.533,59.533,0,0,1,9.142-22.4A70.018,70.018,0,0,1,27.9,10.47,57.682,57.682,0,0,1,49.965,1.163,65.209,65.209,0,0,1,62.418,0a67.213,67.213,0,0,1,15.1,1.644A56.742,56.742,0,0,1,91,6.574a57.635,57.635,0,0,1,11.857,8.218A70.057,70.057,0,0,1,113.1,26.3L91.768,41.425a40.672,40.672,0,0,0-5.939-6.666A33.453,33.453,0,0,0,78.956,30a32.882,32.882,0,0,0-7.8-2.855,38.845,38.845,0,0,0-8.734-.952Z" transform="translate(74.989 74.604)" fill="#00003d"/>
    </g>
  </g>
</svg>
