<svg xmlns="http://www.w3.org/2000/svg" width="130" height="150" viewBox="0 0 70.54 75.26"><path d="M70.538,19.011l-5.957,3.4-.039.023-.013-.023-.037-.067-.06-.108-.08-.146-.1-.181c-.037-.066-.077-.136-.121-.211s-.092-.153-.145-.235-.11-.167-.172-.254c-.123-.175-.252-.367-.388-.572s-.279-.421-.429-.642-.308-.449-.473-.675-.339-.452-.522-.672c-.2-.263-.414-.521-.623-.77s-.419-.488-.622-.714-.4-.438-.586-.634-.358-.373-.513-.53l-.033-.033-.032-.032-.032-.032-.031-.031L59.5,15.84l-.03-.03-.03-.029-.031-.028v.005l-.028-.027-.081-.079-.133-.129-.183-.178-.016-.019-.017-.017-.017-.016-.018-.016-.222-.218c-.081-.078-.169-.162-.264-.25s-.2-.181-.312-.276-.234-.195-.365-.3l-.047-.038-.047-.038-.048-.038-.048-.038-.061-.051-.062-.051-.062-.051-.063-.05-.355-.29q-.184-.149-.382-.306t-.409-.318q-.211-.161-.437-.325c-.209-.134-.423-.275-.643-.422s-.446-.3-.679-.451-.474-.307-.723-.46-.507-.3-.774-.451c-.535-.292-1.1-.585-1.69-.871s-1.211-.566-1.857-.832-1.318-.518-2.015-.749-1.419-.441-2.164-.622q-.974-.235-1.989-.411t-2.057-.288q-1.042-.112-2.1-.159T36.9,6.9l-.309,0-.308,0c-.1,0-.205,0-.308.007s-.206.008-.309.014c-.814.061-1.624.154-2.426.278s-1.6.277-2.376.458-1.548.389-2.3.621-1.482.489-2.192.766q-.392.149-.773.309t-.75.33q-.369.17-.727.348t-.705.363q-.606.323-1.178.662t-1.11.684q-.538.345-1.044.691t-.979.682q-.353.293-.694.571t-.663.545c-.215.178-.422.354-.621.528s-.388.347-.567.52l-.506.514-.471.479-.435.442-.4.4-.157.192-.149.182-.141.171-.132.161-.008.013c-.067.078-.132.157-.2.237s-.125.159-.187.239l-.184.241c-.062.081-.124.162-.188.242q-.747.972-1.412,2t-1.243,2.077q-.579,1.054-1.07,2.127c-.327.714-.624,1.431-.891,2.145q-.289.753-.519,1.5t-.415,1.486q-.184.737-.326,1.457t-.252,1.414q-.04.257-.076.511t-.069.5q-.033.25-.063.5t-.057.485q0,.034-.009.068l-.009.068L7,35.213l-.008.067,0,.054q0,.027,0,.054t0,.053q0,.026,0,.053-.015.358-.03.7t-.028.68q-.013.334-.021.654t-.007.627q0,.06,0,.118t0,.115q0,.057,0,.114t0,.112c0,.007,0,.013,0,.019v.037c0,.006,0,.013,0,.019.016.241.035.473.055.7s.042.44.064.648.042.407.06.6.034.374.045.548c.056.353.1.67.139.946s.065.514.086.707.035.342.044.442.012.153.012.153l.011.056.011.055.012.055.013.056.006.031.007.034.008.037.008.04c0,.01,0,.02,0,.029l.006.03.006.03.006.031,0,.012,0,.013,0,.013,0,.012q.025.124.052.248t.054.247q.027.123.056.246t.058.245c.007.033.014.065.021.1l.023.1.023.1.022.1q.011.053.023.107l.025.109.026.112q.013.057.026.115l.025.077.025.079.025.08.027.08.078.25.082.259.085.268.087.276.033.111.034.111.034.111.035.111q.031.1.065.2t.07.206q.036.1.074.208t.078.21l.03.08.031.08.031.08.031.081.048.123.048.121.048.119.048.117q.047.114.1.229l.1.231.1.233.1.235.015.031.014.031.014.031.014.031,0,.011,0,.011,0,.011,0,.011.077.173.077.174.077.175.077.176.025.056.024.055.024.055.025.056.033.063.034.063.034.063.035.063,0,.009,0,.008,0,.008a.045.045,0,0,1,0,.009l.008.017.011.019.013.023.015.027.066.127.064.122.062.117.061.112.088.161.088.162.089.163.091.163.018.033.018.034.019.034.021.035.062.112.049.089.036.065.022.04,0,0v.007l0,0,.076.133.077.132.077.132.078.133,0,.006,0,.006,0,.005,0,0q.123.206.251.411t.26.407q.132.2.27.4t.281.4l.088.125.087.125.088.124.089.124,0,0,0,0,0,0,.005,0,.028.043.029.043.03.042.03.042a27.223,27.223,0,0,0,4.44,4.943,28.907,28.907,0,0,0,5.515,3.778,30.648,30.648,0,0,0,6.343,2.486,32.065,32.065,0,0,0,6.924,1.067l.126.006.127.005.128,0,.129,0,.069,0,.07,0h.143l.139,0,.139,0h.583l.2,0,.2,0,.2-.006q.321-.01.642-.027t.643-.042q.322-.025.643-.058t.643-.075c.822-.087,1.636-.213,2.438-.37s1.591-.347,2.362-.563,1.523-.457,2.25-.72,1.431-.544,2.1-.841q.51-.225,1-.46t.946-.477q.459-.242.888-.491t.823-.5c.387-.257.758-.5,1.109-.744s.681-.469.988-.691.59-.433.845-.636.484-.4.68-.581l.544-.479.4-.354.248-.219.085-.075.055.057L63.4,64.961l-.1.092-.3.268-.49.432-.663.585c-.243.223-.522.459-.835.708s-.658.509-1.033.781-.779.555-1.208.848-.884.6-1.36.907q-.542.347-1.134.689t-1.228.673q-.636.331-1.313.65t-1.39.62c-.791.333-1.614.649-2.462.941s-1.723.562-2.616.8-1.806.452-2.73.628-1.862.318-2.806.419a33.5,33.5,0,0,1-4.517.254,37.988,37.988,0,0,1-4.365-.3,39.16,39.16,0,0,1-4.037-.724,34.643,34.643,0,0,1-3.532-1.022c-.542-.181-1.056-.369-1.541-.558s-.939-.38-1.364-.566-.818-.369-1.18-.543-.693-.339-.991-.489q-.226-.108-.424-.208t-.368-.193q-.17-.092-.312-.176t-.255-.156l-.167-.1-.13-.079-.094-.056-.057-.033-.022-.009-.063-.027-.1-.047-.139-.069-.174-.09q-.1-.051-.206-.113t-.236-.138q-.125-.076-.263-.164c-.184-.119-.388-.251-.608-.4s-.457-.3-.706-.477-.512-.363-.784-.569-.554-.429-.841-.671c-.6-.452-1.223-.973-1.859-1.551s-1.285-1.213-1.93-1.894-1.286-1.408-1.908-2.169S7.328,60.116,6.76,59.3c-.293-.4-.572-.819-.839-1.237s-.521-.842-.766-1.267-.48-.851-.708-1.274S4,54.674,3.781,54.26c-.189-.426-.376-.846-.556-1.257s-.354-.815-.517-1.21-.315-.782-.453-1.16-.261-.747-.365-1.106L1.726,49l-.156-.5-.149-.475-.141-.449-.1-.43-.091-.4-.085-.368-.078-.336L.806,45.48l-.09-.42L.66,44.8.641,44.71s-.011-.064-.032-.188-.051-.306-.089-.543-.083-.527-.135-.867-.109-.729-.17-1.162q-.025-.327-.052-.689T.111,40.5q-.026-.4-.051-.822T.013,38.8C0,38.5,0,38.183,0,37.859s.01-.656.022-1,.026-.692.042-1.051.033-.725.05-1.1C.193,33.969.287,33.2.4,32.4s.259-1.62.433-2.459.379-1.694.624-2.558.531-1.737.865-2.61.681-1.735,1.076-2.6.825-1.726,1.291-2.576.966-1.691,1.5-2.515,1.1-1.632,1.7-2.417l-.018-.016.113-.144c.075-.1.187-.236.334-.418s.33-.407.546-.67.466-.563.749-.9q.226-.238.478-.5t.529-.544q.277-.283.579-.586t.629-.625q.329-.317.693-.637t.758-.649q.393-.329.812-.668l.853-.7q.564-.408,1.169-.824t1.248-.83q.644-.414,1.326-.819t1.4-.792q.438-.236.891-.463t.919-.443q.467-.216.949-.42t.979-.394q1.3-.5,2.678-.929T29.321.944q1.432-.33,2.906-.557C33.208.236,34.2.122,35.2.048c.122-.007.244-.012.365-.016s.243-.006.364-.008L36.29.02c.121,0,.243,0,.365-.008h0Q37.97-.02,39.279.035t2.592.192Q43.154.364,44.4.582t2.448.51c.913.222,1.8.479,2.65.76s1.674.589,2.464.913,1.546.665,2.269,1.015,1.412.708,2.066,1.067c.327.179.642.364.947.55s.6.375.886.561.562.372.831.551.53.354.784.52.483.355.709.528.442.344.648.509.4.325.59.478.366.3.536.436.307.248.444.366.265.232.382.341.226.212.326.308l.274.266c.016.015.155.143.38.361s.537.526.9.9.775.815,1.2,1.3.87,1.01,1.291,1.555c.222.269.435.546.638.823s.4.555.582.825.36.534.527.784.324.485.473.7c.075.108.144.212.208.313s.123.2.177.289.1.178.149.259l.123.222.1.177.073.131.045.081.015.028Z" fill="#00003d"/><path d="M61.726,30.487v.078a30.609,30.609,0,0,1-.2,3.4,29.993,29.993,0,0,1-2.712,9.472.016.016,0,0,1,0,0v0l0,0,0,0q-.638,1.344-1.4,2.619t-1.643,2.471q-.879,1.2-1.869,2.3t-2.079,2.122l-.055-.057-.085.075-.249.219-.4.354-.543.479c-.2.185-.425.378-.68.581s-.538.415-.845.636-.637.451-.988.691-.722.487-1.109.744q-.394.253-.823.5t-.888.491q-.459.242-.946.477t-1,.46c-.673.3-1.376.58-2.1.842s-1.48.5-2.251.719-1.56.4-2.362.562-1.616.282-2.437.37q-.322.041-.644.074t-.644.057q-.322.025-.643.042t-.641.028l-.2.005-.2,0-.2,0H30.3l-.139,0-.139,0h-.142l-.07,0-.07,0-.128,0-.128,0-.127-.005-.126-.007a32.064,32.064,0,0,1-6.924-1.067,30.647,30.647,0,0,1-6.343-2.486,28.907,28.907,0,0,1-5.515-3.778,27.223,27.223,0,0,1-4.44-4.943l-.03-.043-.03-.043-.029-.042-.028-.042,0,0,0,0,0,0-.005,0q-.207-.3-.4-.58t-.37-.547q-.177-.265-.338-.512t-.3-.476l0,0,0-.005,0-.006,0-.006-.078-.133L4.3,46.431,4.221,46.3l-.076-.133,0,0v-.007l0,0-.022-.04-.036-.065-.049-.089-.062-.112-.017-.032-.018-.033-.02-.035-.021-.036c-.012-.025-.026-.05-.04-.076l-.045-.081-.048-.086-.05-.091L3.67,45.3l-.042-.077-.043-.08-.046-.083-.061-.112-.062-.117-.064-.122-.066-.127-.015-.027-.013-.023-.011-.019L3.239,44.5l0-.009,0-.008,0-.008-.005-.009-.059-.113-.058-.116q-.029-.059-.057-.12T2.994,44l-.077-.176-.077-.175-.077-.174L2.686,43.3l0-.011,0-.011,0-.011,0-.011-.014-.031-.014-.031-.014-.031-.015-.031-.1-.235-.1-.233-.1-.231-.1-.229-.048-.118-.048-.119-.048-.121-.048-.122-.03-.079-.031-.08-.031-.081L1.9,41.4q-.037-.1-.073-.2t-.072-.206l-.071-.209-.071-.211-.033-.11-.034-.11-.034-.111-.035-.113-.087-.276L1.3,39.582l-.082-.259-.078-.25q-.026-.093-.052-.187T1.042,38.7q-.025-.095-.05-.191t-.048-.193c-.007-.032-.015-.064-.022-.1l-.023-.1c-.008-.032-.015-.065-.023-.1s-.014-.066-.021-.1-.018-.075-.026-.112l-.024-.108-.023-.1-.023-.1-.034-.156L.694,37.2l-.029-.135c-.01-.043-.019-.084-.028-.122l0-.014,0-.013,0-.012,0-.011c0-.011,0-.022,0-.032s0-.021-.006-.031L.606,36.8.6,36.77l-.009-.04-.007-.037L.577,36.66l-.006-.031-.013-.056-.012-.055-.011-.055c0-.018-.007-.037-.01-.056,0,0,0-.052-.012-.153S.489,36,.468,35.811s-.049-.43-.086-.707S.3,34.511.243,34.159C.232,33.985.216,33.8.2,33.612s-.039-.39-.06-.6-.043-.424-.064-.648-.04-.457-.055-.7q0-.067,0-.135t0-.134q0-.067,0-.133t0-.133q0-.306.007-.626t.021-.654q.013-.333.028-.68t.03-.705q0-.064.009-.126L.1,28.22q0-.061.01-.121t.011-.118q.026-.24.056-.485T.245,27q.033-.25.07-.5t.077-.511L7.182,27.04l-.008.046-.023.134-.038.217-.052.294-.028.367L7,28.529l-.038.492q-.02.26-.041.546c-.02.19-.03.388-.033.593s0,.417.006.635.015.443.022.672.013.464.013.7c.022.237.044.478.068.722s.049.492.078.74.061.5.1.749.08.5.13.749.105.5.159.744.109.493.169.736.122.483.191.718.143.466.225.691c.065.23.136.453.211.67s.153.426.233.629.161.4.242.587.16.37.237.545q.067.171.137.329t.138.3q.069.145.138.278t.135.254l.053.1.063.114.072.131.079.146h0l.014.026.013.024.012.023.011.023.089.159.095.173.1.185.109.2c.141.235.3.493.48.771s.379.575.6.887.462.639.727.976.551.685.862,1.038.649.707,1.007,1.067.738.722,1.142,1.078.83.709,1.281,1.05.925.671,1.424.982c.24.173.489.334.746.487s.52.3.787.441.538.28.811.42.546.279.818.424c.288.111.576.228.865.343s.579.232.87.342.586.217.884.313.6.183.9.255a21.4,21.4,0,0,0,3.665.737,24.186,24.186,0,0,0,3.615.134,24.521,24.521,0,0,0,3.373-.358,20.686,20.686,0,0,0,2.94-.738l.331-.108.325-.106.317-.1.308-.1.291-.125.284-.122.276-.118.268-.115q.267-.106.512-.214t.467-.218q.222-.109.422-.218T42.2,51.8l.034-.019.033-.018.033-.019.034-.02-.005-.008.148-.09.418-.255.649-.4.843-.514.45-.339.481-.364.508-.384.53-.4c.162-.158.331-.314.5-.471s.347-.314.521-.474.349-.323.519-.491.337-.341.5-.522.319-.361.479-.54.318-.358.473-.538.3-.361.448-.544.278-.369.4-.559l.2-.272.192-.267.188-.261.184-.254.156-.264.151-.257.146-.248.141-.238.262-.447c.083-.142.161-.277.233-.405s.137-.249.194-.362.106-.22.145-.319l.118-.255L52.6,40.8l.054-.116.019-.04h0l.082-.21.183-.465.271-.686.345-.871.154-.542.165-.58.174-.613.182-.641c.035-.223.075-.449.118-.678s.087-.46.13-.693.083-.469.118-.706.064-.476.083-.716.036-.481.055-.72.038-.477.053-.714.026-.471.03-.7,0-.462-.015-.688q0-.169-.009-.335t-.007-.329q0-.163-.006-.322t-.006-.315q-.018-.155-.034-.3l-.033-.295-.032-.285q-.016-.14-.031-.274c-.021-.178-.04-.348-.059-.51s-.038-.315-.057-.459-.04-.278-.062-.4-.047-.238-.074-.34h0v-.007a.035.035,0,0,1,0-.005h0l-.009-.041-.009-.038-.008-.036-.008-.035-.041-.186-.055-.252-.069-.315-.083-.376c-.017-.1-.041-.213-.07-.325s-.063-.23-.1-.351-.078-.247-.12-.378-.086-.266-.13-.406-.092-.283-.139-.432-.1-.3-.148-.457-.109-.315-.172-.476-.132-.324-.211-.487a20.878,20.878,0,0,0-.986-2.114A24.953,24.953,0,0,0,50.684,17.3,25.254,25.254,0,0,0,49,15.086a22.844,22.844,0,0,0-1.994-2.07,21.346,21.346,0,0,0-2.238-1.805,24.468,24.468,0,0,0-2.363-1.466A25.562,25.562,0,0,0,40.06,8.616a22.963,22.963,0,0,0-2.192-.794c-.174-.047-.344-.1-.51-.144l-.487-.142c-.158-.045-.313-.089-.464-.127s-.3-.073-.443-.1l-.419-.075-.39-.069-.36-.064-.328-.058q-.155-.03-.294-.055t-.26-.042q-.121-.018-.225-.028T33.5,6.9l-.15-.012-.109-.008-.066,0-.022,0L33.813,0a30.689,30.689,0,0,1,4.645.778A29.582,29.582,0,0,1,42.765,2.2a30.108,30.108,0,0,1,3.967,2.021,32.077,32.077,0,0,1,3.626,2.56l.078.062.1.077L50.626,7l.076.065.338.28c.11.091.217.181.324.272s.212.183.319.277.214.192.323.294a.113.113,0,0,1,.019.025c.007.011.013.024.02.037l.02.039a.253.253,0,0,0,.017.03l.182.178.132.129.081.079.028.027V8.729l.032.028.031.029.03.03.029.031.031.031.032.032.032.032.033.033c.155.156.328.333.513.528s.382.407.586.633.413.465.622.714.419.507.623.772c.183.219.357.445.523.672s.323.454.473.675.292.438.428.642.265.4.388.572c.062.087.119.172.172.254s.1.161.145.235.084.145.121.211l.1.181.08.146.06.108.037.067.013.023.039-.023a30.189,30.189,0,0,1,3.982,13.233l0,.022,0,.022c0,.007,0,.015,0,.022s0,.015,0,.022q.014.222.024.445t.017.447q.007.224.01.449t0,.451Z" transform="translate(6.898 7.038)" fill="#0101fd"/><path d="M17.067,7.156a10.318,10.318,0,0,0-1.977.185,9.15,9.15,0,0,0-3.5,1.482,10.566,10.566,0,0,0-1.525,1.3,10.78,10.78,0,0,0-1.27,1.574,9.705,9.705,0,0,0-.906,1.728A9.839,9.839,0,0,0,7.343,15.3a11.543,11.543,0,0,0,0,4.074,9.843,9.843,0,0,0,.544,1.883,9.724,9.724,0,0,0,.906,1.728,10.806,10.806,0,0,0,1.268,1.574,10.566,10.566,0,0,0,1.525,1.3,9.15,9.15,0,0,0,3.5,1.482,10.319,10.319,0,0,0,1.977.185,10.616,10.616,0,0,0,2.388-.26,8.987,8.987,0,0,0,2.133-.781,9.154,9.154,0,0,0,1.879-1.3,11.15,11.15,0,0,0,1.625-1.823L30.923,27.5a19.155,19.155,0,0,1-2.8,3.146,15.758,15.758,0,0,1-3.242,2.247A15.515,15.515,0,0,1,21.2,34.237a18.378,18.378,0,0,1-4.13.449,17.813,17.813,0,0,1-3.4-.318,15.783,15.783,0,0,1-6.033-2.546,19.117,19.117,0,0,1-4.816-4.891,16.278,16.278,0,0,1-2.5-6.125,19.348,19.348,0,0,1,0-6.926,16.278,16.278,0,0,1,2.5-6.125A19.144,19.144,0,0,1,7.628,2.863,15.771,15.771,0,0,1,13.662.318,17.83,17.83,0,0,1,17.067,0,18.378,18.378,0,0,1,21.2.449,15.515,15.515,0,0,1,24.882,1.8a15.758,15.758,0,0,1,3.242,2.247,19.155,19.155,0,0,1,2.8,3.146l-5.831,4.136A11.121,11.121,0,0,0,23.467,9.5a9.147,9.147,0,0,0-1.879-1.3,8.991,8.991,0,0,0-2.134-.781,10.621,10.621,0,0,0-2.388-.26Z" transform="translate(20.504 20.398)" fill="#00003d"/></svg>