<svg xmlns="http://www.w3.org/2000/svg" width="115.893" height="125.802" viewBox="0 0 115.893 125.802"><path d="M4446.59-1734.965a19.907,19.907,0,0,1-9.793-2.558c-.6-1.1-1.175-2.2-1.737-3.272a88.723,88.723,0,0,1-4.181-10.467c-.5-1.575-.945-3.016-1.35-4.3-.3-1.309-.559-2.451-.779-3.391-.4-1.879-.632-2.958-.632-2.958s-.4-2.271-.941-6.1c-.149-1.927-.317-4.279-.45-6.965-.1-2.689.08-5.733.226-9.043a86.493,86.493,0,0,1,4.889-21.981,86.994,86.994,0,0,1,12.316-22.351l-.041-.034s1.355-1.747,3.852-4.711c1.332-1.4,2.97-3.085,4.9-4.981,1.939-1.869,4.327-3.761,6.891-5.859a100.568,100.568,0,0,1,11.377-7.22,70.866,70.866,0,0,1,8.262-3.8,88.252,88.252,0,0,1,25.124-5.7c1.079-.063,2.145-.046,3.224-.082a87.057,87.057,0,0,1,22.546,2.388,79.266,79.266,0,0,1,12.016,4,20.125,20.125,0,0,1,.287,3.393v31.761a54.972,54.972,0,0,0-16.917-8.708c-1.539-.415-2.934-.889-4.208-1.136-1.275-.231-2.394-.427-3.311-.589a15.091,15.091,0,0,0-2.138-.3c-.5-.04-.767-.057-.767-.057l1.457-15.192a72.555,72.555,0,0,0-8.416-.309c-.911.018-1.817.007-2.728.064a71.739,71.739,0,0,0-20.545,4.693,56.514,56.514,0,0,0-6.533,2.987,87.144,87.144,0,0,0-9.532,6.014c-2.082,1.731-4.047,3.259-5.627,4.787-1.54,1.562-2.889,2.935-4,4.06-.471.583-.9,1.1-1.279,1.562l-.017.029c-.594.693-1.1,1.406-1.667,2.122a71.766,71.766,0,0,0-10.206,18.452,64.289,64.289,0,0,0-3.345,12.957c-.151.971-.283,1.928-.4,2.861.117-.926.251-1.875.4-2.837l15.015,2.329s-.092.553-.265,1.528c-.075.98-.184,2.375-.312,4.059-.178,1.678.019,3.645.019,5.755a63.662,63.662,0,0,0,.828,6.544,48.147,48.147,0,0,0,1.645,6.389,40.376,40.376,0,0,0,2.042,5.376A22.427,22.427,0,0,0,4463-1753.2c.138.259.346.628.588,1.078.04.08.08.144.109.214.254.45.537.98.87,1.579a55.1,55.1,0,0,0,5.9,8.119,54.02,54.02,0,0,0,7.819,7.245Zm7.5-3.509q-1.025-1.5-1.848-2.775C4452.826-1740.307,4453.437-1739.379,4454.094-1738.474Zm-9.838-21.068c.056.171.111.35.17.53q-.174-.619-.333-1.255C4444.144-1760.034,4444.2-1759.793,4444.256-1759.542Zm-.679-2.987c-.055-.254-.106-.492-.153-.706C4443.474-1763,4443.524-1762.764,4443.577-1762.528Zm-1.6-12.854c.006.053.006.1.01.151-.011-.35-.025-.695-.037-1.04C4441.958-1775.965,4441.963-1775.671,4441.979-1775.382Zm.25-7.981c-.03.2-.053.4-.076.6-.007.162-.012.317-.012.473-.069,1.664-.152,3.247-.181,4.727.031-1.47.113-3.04.181-4.7.029-.375.051-.733.086-1.079.015-.141.031-.284.047-.428C4442.258-1783.631,4442.243-1783.5,4442.228-1783.362Zm40.857,33.133a37.132,37.132,0,0,1-11.054-27.091,37.128,37.128,0,0,1,11.054-27.089,36.016,36.016,0,0,1,26.682-11.256q19.242,0,30.634,15.9l-12.891,9.147a20.771,20.771,0,0,0-17.743-9.209v-.013a20.885,20.885,0,0,0-15.49,6.552,22.1,22.1,0,0,0-6.412,15.966,22.12,22.12,0,0,0,6.412,15.967,20.888,20.888,0,0,0,15.49,6.551,20.776,20.776,0,0,0,17.743-9.21l12.891,9.147q-11.4,15.9-30.634,15.9A36.041,36.041,0,0,1,4483.085-1750.229Z" transform="translate(-4426.699 1860.767)" fill="#fff" opacity="0.1"/></svg>