<svg xmlns="http://www.w3.org/2000/svg" width="17.75" height="16.385" viewBox="0 0 17.75 16.385"><g transform="translate(-3.375 -4.5)"><path d="M19.418,6.75H17.712V7.774a.342.342,0,0,1-.341.341h-.683a.342.342,0,0,1-.341-.341V6.75H8.154V7.774a.342.342,0,0,1-.341.341H7.13a.342.342,0,0,1-.341-.341V6.75H5.082A1.712,1.712,0,0,0,3.375,8.457V20.063a1.712,1.712,0,0,0,1.707,1.707H19.418a1.712,1.712,0,0,0,1.707-1.707V8.457A1.712,1.712,0,0,0,19.418,6.75Zm.341,12.8a.856.856,0,0,1-.853.853H5.594a.856.856,0,0,1-.853-.853V11.87a.342.342,0,0,1,.341-.341H19.418a.342.342,0,0,1,.341.341Z" transform="translate(0 -0.885)" fill="#212529"/><path d="M10.365,4.841a.342.342,0,0,0-.341-.341H9.341A.342.342,0,0,0,9,4.841V5.865h1.365Z" transform="translate(-2.212)" fill="#212529"/><path d="M26.115,4.841a.342.342,0,0,0-.341-.341h-.683a.342.342,0,0,0-.341.341V5.865h1.365Z" transform="translate(-8.404)" fill="#212529"/></g></svg>