<svg xmlns="http://www.w3.org/2000/svg" width="15.67" height="18.5" viewBox="0 0 15.67 18.5"><path d="M2.791,18.5a.881.881,0,0,1-.854-.916V16.571H.867A.877.877,0,0,1,0,15.717c0-.1,0-.193,0-.286,0-.046,0-.092,0-.138V2.363q0-.246,0-.492c0-.324,0-.659,0-.988A.885.885,0,0,1,.8.005C.859,0,.912,0,.964,0h11.9a.875.875,0,0,1,.874.859.415.415,0,0,1,0,.066V1.931H14.8a.874.874,0,0,1,.86.8.358.358,0,0,1,0,.052.176.176,0,0,1,0,.033V17.29c0,.036,0,.075,0,.115a1.331,1.331,0,0,1-.05.51.9.9,0,0,1-.864.585H2.791Zm.183-1.043H14.623V2.975h-.892v9.094c0,.03,0,.061,0,.092,0,.049,0,.1,0,.154l0,.016a.377.377,0,0,1,.006.062.5.5,0,0,1-.172.393l-3.482,3.482v.052l-.037-.015-.117.118a.509.509,0,0,1-.361.149H9.548c-.061,0-.128,0-.2,0H9.138l-.2,0H2.974Zm6.064-1.932c0-.157,0-.313,0-.466s0-.321,0-.482v-1.7c0-.015,0-.03,0-.044,0-.032,0-.067,0-.1a.843.843,0,0,1,.478-.76,1.193,1.193,0,0,1,.5-.085h2.66c0-.151,0-.3,0-.447s0-.311,0-.464V1.043h-.058v0H1.046V15.524H2.466c.088,0,.183,0,.293,0l.29,0,.285,0Zm1.052-2.488v1.736l1.848-1.848H10.093C10.093,12.967,10.091,13.008,10.09,13.036ZM4.754,9.809a1.975,1.975,0,0,0,.678-.63,1.739,1.739,0,0,0,.278-1,1.955,1.955,0,0,0-.071-.516H4.824V7.047h.64a6.961,6.961,0,0,1-.175-.68,2.425,2.425,0,0,1-.038-.418A1.6,1.6,0,0,1,5.893,4.6,2.017,2.017,0,0,1,7.141,4.21a1.855,1.855,0,0,1,1.242.414,1.811,1.811,0,0,1,.6,1.163L8.239,5.9a1.237,1.237,0,0,0-.372-.786,1.122,1.122,0,0,0-1.51.011.964.964,0,0,0-.305.717,4.208,4.208,0,0,0,.237,1.206H7.6v.616H6.417a.917.917,0,0,1,.079.366,1.95,1.95,0,0,1-.172.765,2.876,2.876,0,0,1-.568.823,2.264,2.264,0,0,1,.6-.092,3.371,3.371,0,0,1,.778.1A5.164,5.164,0,0,0,8.1,9.8a1.982,1.982,0,0,0,.8-.233l.241.686a4.05,4.05,0,0,1-.592.212,1.805,1.805,0,0,1-.418.05,1.906,1.906,0,0,1-.354-.033c-.075-.014-.254-.064-.539-.152s-.467-.139-.551-.156a2.305,2.305,0,0,0-.391-.033,2.187,2.187,0,0,0-.638.1,2.529,2.529,0,0,0-.618.283Z" transform="translate(0)" fill="#212529"/></svg>