<svg xmlns="http://www.w3.org/2000/svg" width="22.065" height="17" viewBox="0 0 22.065 17"><path d="M20.9,4.246H6.225A3.7,3.7,0,0,0,2.532,7.939v9.614a3.7,3.7,0,0,0,3.693,3.693H20.9A3.7,3.7,0,0,0,24.6,17.553V7.939A3.7,3.7,0,0,0,20.9,4.246ZM6.225,5.723H20.9A2.218,2.218,0,0,1,23.12,7.939v.969H4.009V7.939A2.218,2.218,0,0,1,6.225,5.723ZM20.9,19.769H6.225a2.218,2.218,0,0,1-2.216-2.216V10.385H23.12v7.168A2.218,2.218,0,0,1,20.9,19.769Zm.2-3.454a.739.739,0,0,1-.739.739H18.591a.739.739,0,1,1,0-1.477h1.771a.739.739,0,0,1,.739.739Z" transform="translate(-2.532 -4.246)" fill="#212529"/></svg>