<svg xmlns="http://www.w3.org/2000/svg" width="18.849" height="20" viewBox="0 0 18.849 20"><path d="M4522.108-2873.032a3.8,3.8,0,0,1-2.912-1.355,3.8,3.8,0,0,1-.841-3.1,10,10,0,0,1,.832-2.614l.347-.725-2.625,1.122a.723.723,0,0,1-.284.059.722.722,0,0,1-.665-.438.717.717,0,0,1-.007-.553.722.722,0,0,1,.388-.4l4.258-1.823a.728.728,0,0,1,.284-.058.724.724,0,0,1,.665.438l1.822,4.258a.724.724,0,0,1,.007.553.721.721,0,0,1-.388.4.713.713,0,0,1-.284.058.723.723,0,0,1-.666-.438l-1.145-2.674-.4.844a8.557,8.557,0,0,0-.711,2.236,2.354,2.354,0,0,0,.522,1.923,2.355,2.355,0,0,0,1.806.84h8.832a2.358,2.358,0,0,0,1.835-.872,2.361,2.361,0,0,0,.48-1.975l-.233-1.116a5.477,5.477,0,0,0-5.338-4.34h-3.743a.723.723,0,0,1-.722-.723.717.717,0,0,1,.211-.511.717.717,0,0,1,.511-.211h3.743a6.918,6.918,0,0,1,4.352,1.545,6.919,6.919,0,0,1,2.4,3.945l.233,1.116a3.8,3.8,0,0,1-.773,3.182,3.8,3.8,0,0,1-2.957,1.407Zm.585-16.19a3.815,3.815,0,0,1,3.81-3.81,3.815,3.815,0,0,1,3.811,3.81,3.815,3.815,0,0,1-3.811,3.811A3.815,3.815,0,0,1,4522.693-2889.221Zm1.445,0a2.367,2.367,0,0,0,2.365,2.365,2.368,2.368,0,0,0,2.366-2.365,2.368,2.368,0,0,0-2.366-2.365A2.367,2.367,0,0,0,4524.139-2889.221Z" transform="translate(-4515.902 2893.031)" fill="#212529"/></svg>