<svg xmlns="http://www.w3.org/2000/svg" xmlns:xlink="http://www.w3.org/1999/xlink" width="40.443" height="40.443" viewBox="0 0 40.443 40.443"><defs><linearGradient id="a" x1="-1.014" y1="-1.488" x2="1.308" y2="1.185" gradientUnits="objectBoundingBox"><stop offset="0" stop-color="#0101fd"/><stop offset="0.138" stop-color="#d8ebf9"/><stop offset="0.255" stop-color="#0101fd"/><stop offset="0.611" stop-color="#0101fd"/><stop offset="0.711" stop-color="#d8ebf9"/><stop offset="0.803" stop-color="#0101fd"/><stop offset="1" stop-color="#01017f"/></linearGradient></defs><g transform="translate(11.754 0)"><path d="M20.221,2A18.221,18.221,0,0,0,7.337,33.106,18.221,18.221,0,0,0,33.106,7.337,18.1,18.1,0,0,0,20.221,2m0-2A20.221,20.221,0,1,1,0,20.221,20.221,20.221,0,0,1,20.221,0Z" transform="translate(-11.754)" fill="url(#a)"/><path d="M21.293,12.194h0l-9.1,9.1a1.8,1.8,0,0,1-2.548-2.548l6.006-6.006H1.82A1.719,1.719,0,0,1,0,10.92,1.719,1.719,0,0,1,1.82,9.1H15.651L9.646,3.094a1.759,1.759,0,0,1,0-2.548,1.759,1.759,0,0,1,2.548,0h0l9.1,9.1A1.756,1.756,0,0,1,21.293,12.194Z" transform="translate(-6.919 20.337) rotate(-45)" fill="#212529"/></g></svg>