<svg xmlns="http://www.w3.org/2000/svg" width="77.241" height="77.203" viewBox="0 0 77.241 77.203"><g transform="translate(0.5 0.5)"><path d="M253.338,0A32.478,32.478,0,1,1,220.79,32.165,32.338,32.338,0,0,1,253.338,0Z" transform="translate(-215.163 5.624)" fill="#3bb1d4"/><g transform="translate(12.07 31.22)"><g transform="translate(0)"><path d="M202.436,238.116c-1.537,0-3.074.012-4.611-.008-.406-.005-.494.089-.372.487a4.817,4.817,0,0,0,3.8,3.591,4.615,4.615,0,0,0,4.736-1.719c.065-.078.121-.163.187-.239a.93.93,0,0,1,1.339-.229.97.97,0,0,1,.15,1.4,6.613,6.613,0,0,1-2.9,2.287,6.792,6.792,0,1,1,4.128-7.527,1.663,1.663,0,0,1-1.743,1.942c-1.57.025-3.142.006-4.712.006v.01Z" transform="translate(-180.18 -230.585)" fill="#fefefe"/><path d="M395.11,237.275a6.793,6.793,0,1,1,6.738,6.8A6.8,6.8,0,0,1,395.11,237.275Z" transform="translate(-357.033 -230.49)" fill="#fefefe"/><path d="M76,244.378a1.216,1.216,0,0,1-.864-.435c-1.562-1.568-3.138-3.122-4.687-4.7-.277-.282-.409-.249-.665.011-1.554,1.576-3.127,3.132-4.692,4.7a1.05,1.05,0,0,1-.982.4.856.856,0,0,1-.7-.6.953.953,0,0,1,.264-1.018c.937-.926,1.864-1.863,2.794-2.8.68-.682,1.349-1.374,2.047-2.038.245-.234.229-.363,0-.592-1.6-1.579-3.179-3.177-4.774-4.758a.985.985,0,0,1-.285-1.187.916.916,0,0,1,1.494-.215c.64.6,1.252,1.233,1.874,1.853,1,1,2.018,2,3.008,3.012.238.244.36.222.586-.008q2.35-2.379,4.726-4.733c.449-.448.846-.531,1.262-.286a.917.917,0,0,1,.128,1.511c-.571.6-1.166,1.176-1.75,1.762-1,1-1.993,2.021-3.015,3-.3.291-.255.442.015.71q2.376,2.353,4.721,4.738a.924.924,0,0,1-.352,1.63c-.065.017-.131.03-.161.037Z" transform="translate(-63.364 -230.815)" fill="#fefefe"/><path d="M348.038,232.364a4.02,4.02,0,0,1,2.486-.771.93.93,0,0,1,1.04.927c.005.552-.326.85-.991.9a6.673,6.673,0,0,0-.752.1,1.942,1.942,0,0,0-1.721,1.947c-.06.673-.084,1.346-.082,2.021.005,2.025,0,4.05,0,6.077,0,.151.005.3,0,.455A.918.918,0,1,1,346.18,244c-.013-1.08,0-2.16,0-3.241,0-2.633.006-5.266-.006-7.9,0-.52.113-.943.642-1.136.448-.164.817.03,1.227.644Z" transform="translate(-314.651 -231.48)" fill="#fefefe"/><path d="M225.116,253.086c-.1.008-.2.021-.3.021q-4.382,0-8.763,0c-.249,0-.462.05-.341-.362a4.917,4.917,0,0,1,4.863-3.4,4.86,4.86,0,0,1,4.525,3.566,1.188,1.188,0,0,1,.014.171Z" transform="translate(-198.33 -247.66)" fill="#1ab3d6"/><path d="M418.892,259.168a4.869,4.869,0,1,1,4.869-4.861A4.852,4.852,0,0,1,418.892,259.168Z" transform="translate(-374.021 -247.505)" fill="#1ab3d6"/><path d="M448.626,282.491a1.678,1.678,0,0,1-1.68,1.665,1.688,1.688,0,0,1,0-3.377A1.668,1.668,0,0,1,448.626,282.491Z" transform="translate(-402.079 -275.668)" fill="#fefefe"/></g></g><path d="M258.9-.5h.073a38.788,38.788,0,0,1,15.091,3.042,38.373,38.373,0,0,1,20.48,20.549,38.728,38.728,0,0,1,2.985,15.093,38,38,0,0,1-3.074,14.941,39.089,39.089,0,0,1-20.569,20.528,38.047,38.047,0,0,1-14.953,3.05h-.021A38.559,38.559,0,0,1,223.289,52.97a38.959,38.959,0,0,1-3-15.238,38.243,38.243,0,0,1,23.57-35.25A38.912,38.912,0,0,1,258.9-.5Zm.014,76.2h.02A37.6,37.6,0,1,0,258.972.5H258.9A37.128,37.128,0,0,0,221.29,37.736,37.622,37.622,0,0,0,258.915,75.7Z" transform="translate(-220.789 0)" fill="#3bb1d4"/></g></svg>