<svg xmlns="http://www.w3.org/2000/svg" xmlns:xlink="http://www.w3.org/1999/xlink" width="21.144" height="20" viewBox="0 0 21.144 20"><defs><clipPath id="a"><rect width="21.144" height="20" fill="none"/></clipPath></defs><g clip-path="url(#a)"><path d="M154.606,121.971H138.934v2.267h.976v13.8a1.5,1.5,0,0,0,1.5,1.5h1.17v-15.3h2.439v15.3h7.121a1.5,1.5,0,0,0,1.5-1.5v-13.8h.975Zm-3.34,14.515a.7.7,0,0,1-.7.7h-2.164a.7.7,0,0,1-.7-.7v-3.158a.7.7,0,0,1,.7-.7h2.164a.7.7,0,0,1,.7.7Z" transform="translate(-136.158 -119.534)" fill="#212529"/><path d="M20.447,0H.7A.7.7,0,0,0,0,.7V6.58a.7.7,0,0,0,.7.7H3.006V5.883H1.393V1.393H19.751v4.49H18.2V7.277h2.249a.7.7,0,0,0,.7-.7V.7a.7.7,0,0,0-.7-.7" fill="#212529"/></g></svg>