<svg xmlns="http://www.w3.org/2000/svg" width="20.162" height="20" viewBox="0 0 20.162 20"><path d="M28.381,35.44a10,10,0,1,1,10.092-9.949A10.038,10.038,0,0,1,28.381,35.44M26.841,30.1a.993.993,0,0,0,.851-.343c.456-.458.917-.911,1.378-1.364q2.446-2.407,4.892-4.815a1.038,1.038,0,0,0,.277-1.072,1.1,1.1,0,0,0-1.847-.468q-2.658,2.613-5.3,5.237c-.166.164-.257.183-.429.006q-1-1.027-2.025-2.024a1.086,1.086,0,0,0-1.529.005,1.068,1.068,0,0,0-.017,1.541c.989,1,1.988,1.99,2.986,2.982a.893.893,0,0,0,.768.315" transform="translate(-18.311 -15.44)" fill="#27af7c"/></svg>