<svg xmlns="http://www.w3.org/2000/svg" width="31.067" height="20" viewBox="0 0 31.067 20"><path d="M1832.117-3913h0a5.329,5.329,0,0,1-3.794-1.566,5.329,5.329,0,0,1-1.566-3.795,5.308,5.308,0,0,1,3.552-5.038,7.6,7.6,0,0,1,.428-5.046,7.831,7.831,0,0,1,3.577-3.738,7.685,7.685,0,0,1,3.468-.817,7.816,7.816,0,0,1,6.673,3.724,5.939,5.939,0,0,1,2.643-.624,6.116,6.116,0,0,1,2.073.366,6,6,0,0,1,3.875,5.813,5.493,5.493,0,0,1,3.383,1.752,5.252,5.252,0,0,1,1.4,3.545,5.327,5.327,0,0,1-1.566,3.794,5.331,5.331,0,0,1-3.795,1.566h-20.345v.064Zm17.663-8.359a.556.556,0,0,1,.422.208c.1.1.1.207.1.393v.037a.84.84,0,0,1-.235.534,3.806,3.806,0,0,1-.37.4l-.005,0c-.1.1-.207.2-.34.342l-1.49,1.6v.85h3.617v-1.063h-2.021l.958-.958c.132-.175.264-.333.38-.472l0,0a3,3,0,0,0,.361-.482,1.959,1.959,0,0,0,.213-.744,1.53,1.53,0,0,0-.531-1.17,1.592,1.592,0,0,0-1.171-.426,1.587,1.587,0,0,0-1.064.319c-.049.05-.1.1-.162.151l-.006.005a2.254,2.254,0,0,0-.576.694l.958.532C1849.122-3921.116,1849.435-3921.359,1849.78-3921.359Zm-5.946-3.221a3.187,3.187,0,0,0-2.365.96,3.156,3.156,0,0,0-.96,2.3,3.153,3.153,0,0,0,.96,2.3,3.035,3.035,0,0,0,2.3.96,3.189,3.189,0,0,0,2.368-.96,3.2,3.2,0,0,0,1.024-2.3,3.156,3.156,0,0,0-.96-2.3A3.19,3.19,0,0,0,1843.834-3924.58Zm-6.46,0a3.188,3.188,0,0,0-2.366.96,2.96,2.96,0,0,0-.961,2.3,3.151,3.151,0,0,0,.961,2.3,3.294,3.294,0,0,0,2.366.9,3.123,3.123,0,0,0,2.494-1.215l-.895-.9a1.875,1.875,0,0,1-1.664.831,1.709,1.709,0,0,1-1.343-.575,2.122,2.122,0,0,1-.511-1.407,1.784,1.784,0,0,1,.575-1.407,2.065,2.065,0,0,1,1.344-.512,2.026,2.026,0,0,1,1.664.832l.895-.959A3.213,3.213,0,0,0,1837.375-3924.58Zm6.46,5.246a1.736,1.736,0,0,1-1.343-.576,2.116,2.116,0,0,1-.511-1.407,1.91,1.91,0,0,1,.511-1.407,1.849,1.849,0,0,1,1.343-.577,1.85,1.85,0,0,1,1.344.577,2.114,2.114,0,0,1,.512,1.407,2.117,2.117,0,0,1-.512,1.407A1.848,1.848,0,0,1,1843.834-3919.334Z" transform="translate(-1826.756 3933)" fill="#212529"/></svg>