<svg xmlns="http://www.w3.org/2000/svg" width="20" height="20" viewBox="0 0 20 20"><path d="M1.667,20A1.672,1.672,0,0,1,0,18.334V1.667A1.672,1.672,0,0,1,1.667,0h10a1.672,1.672,0,0,1,1.667,1.667v.978L9.583,6.392v3.884l3.75,3.748v4.311A1.672,1.672,0,0,1,11.667,20Zm4.167-2.5a.833.833,0,1,0,.833-.833A.833.833,0,0,0,5.834,17.5Zm10.059-3.274a8.335,8.335,0,0,0,0-11.786l1.179-1.178a10,10,0,0,1,0,14.142Zm-1.719-3.632a3.733,3.733,0,0,0,0-5.277l.879-.879a4.976,4.976,0,0,1,0,7.035ZM11.521,9.082a1.242,1.242,0,0,0,0-1.758l.881-.879a2.488,2.488,0,0,1,0,3.516Z" fill="#212529"/></svg>