<svg xmlns="http://www.w3.org/2000/svg" width="21.496" height="21.499" viewBox="0 0 21.496 21.499"><path d="M4175.332-1850.088l-8.746-8.746a2.007,2.007,0,0,1,0-2.832l8.746-8.747a2,2,0,0,1,1.417-.586,2,2,0,0,1,1.417.586l8.745,8.747a2.006,2.006,0,0,1,0,2.832l-8.746,8.746a1.991,1.991,0,0,1-1.417.586A1.991,1.991,0,0,1,4175.332-1850.088Zm1.062-19.264-8.747,8.746a.5.5,0,0,0,0,.712l8.746,8.746a.5.5,0,0,0,.355.147.5.5,0,0,0,.355-.147l8.746-8.746a.5.5,0,0,0,0-.712l-8.746-8.746a.5.5,0,0,0-.355-.147A.5.5,0,0,0,4176.393-1869.353Zm-3.083,12.226a.312.312,0,0,1-.312-.312v-3.125a1.249,1.249,0,0,1,1.25-1.25h4.374v-2.1a.313.313,0,0,1,.524-.23l3.29,3.036a.311.311,0,0,1,0,.459l-3.29,3.036a.312.312,0,0,1-.524-.23v-2.1h-3.749v2.5a.313.313,0,0,1-.313.312Z" transform="translate(-4166 1871)" fill="#212529"/></svg>