<svg xmlns="http://www.w3.org/2000/svg" width="10.013" height="10" viewBox="0 0 10.013 10"><g transform="translate(6678.867 -2038.808)"><path d="M6.645,8.246v1.786l-1.65,1.321A.357.357,0,0,0,5.216,12H8.787a.357.357,0,0,0,.225-.636L7.359,10.043V8.257l4.5-3.464a.357.357,0,0,0-.218-.65H9.562l.961-1.6a.357.357,0,0,0-.611-.357L8.727,4.143H6.088a1.429,1.429,0,1,0-2.457,0H2.359a.357.357,0,0,0-.218.639Zm-.411,3.039L7,10.671l.768.614ZM4.145,3.429a.714.714,0,1,1,.714.714A.714.714,0,0,1,4.145,3.429ZM8.3,4.857l-.532.889a.357.357,0,0,0,.611.357l.768-1.246h1.461L7,7.621,3.409,4.857Z" transform="translate(-6680.87 2036.808)" fill="#393634"/></g></svg>