<svg xmlns="http://www.w3.org/2000/svg" width="20" height="20" viewBox="0 0 20 20"><g transform="translate(3061.063 2752.063)"><path d="M4.51,1.482a.629.629,0,0,0-1.258,0V20.224a.629.629,0,1,0,1.258,0Z" transform="translate(-3054.944 -2752.917)"/><path d="M2.925,7.6a.627.627,0,0,0,1.016.734L5.683,5.929A.627.627,0,1,0,4.668,5.2Z" transform="translate(-3056.239 -2741.052)"/><path d="M6.418,19.908a.627.627,0,1,0,1.016-.734L5.687,16.767a.627.627,0,1,0-1.016.734l1.742,2.406ZM3.941,1.212a.628.628,0,1,0-1.016.738L4.668,4.357a.628.628,0,1,0,1.016-.738Z" transform="translate(-3056.243 -2752.624)"/><path d="M6.134,1.951a.628.628,0,0,0-1.016-.738L3.372,3.619a.628.628,0,0,0,1.016.738L6.13,1.951Z" transform="translate(-3054.944 -2752.624)"/><path d="M15.885,2.627a.628.628,0,1,0-.891-.887L1.74,14.995a.63.63,0,1,0,.891.891Z" transform="translate(-3059.874 -2750.874)"/><path d="M1.841,4.92a.627.627,0,1,0,.2,1.238l2.938-.469a.627.627,0,1,0-.2-1.238L1.841,4.92Z" transform="translate(-3060.584 -2742.483)"/><path d="M1.951,17a.627.627,0,1,0,1.238.2l.469-2.93a.627.627,0,0,0-1.238-.2L1.951,17ZM13.423,2.037a.627.627,0,1,0-1.238-.2l-.469,2.93a.627.627,0,1,0,1.238.2Z" transform="translate(-3058.749 -2751.581)"/><path d="M8.1,3.189a.627.627,0,1,0-.2-1.238L4.972,2.42a.627.627,0,0,0,.2,1.238L8.1,3.189Z" transform="translate(-3051.484 -2749.749)"/><path d="M20.224,4.51a.629.629,0,1,0,0-1.258H1.482a.629.629,0,0,0,0,1.258Z" transform="translate(-3061.917 -2745.944)"/><path d="M1.951,2.926a.628.628,0,1,0-.738,1.016L3.619,5.684a.628.628,0,1,0,.738-1.016L1.951,2.926Z" transform="translate(-3061.624 -2747.24)"/><path d="M1.212,6.414a.628.628,0,0,0,.738,1.016L4.357,5.683a.628.628,0,1,0-.738-1.016L1.212,6.41Zm18.7-2.473a.627.627,0,1,0-.734-1.016L16.767,4.668A.627.627,0,1,0,17.5,5.683Z" transform="translate(-3061.624 -2747.239)"/><path d="M7.6,6.133a.627.627,0,0,0,.734-1.016L5.929,3.371A.627.627,0,1,0,5.2,4.387L7.6,6.129Z" transform="translate(-3050.052 -2745.943)"/><path d="M15,15.885a.63.63,0,0,0,.891-.891L2.63,1.74a.63.63,0,0,0-.891.891L14.993,15.885Z" transform="translate(-3059.877 -2750.874)"/><path d="M3.189,1.841a.627.627,0,1,0-1.238.2L2.42,4.974a.627.627,0,1,0,1.238-.2L3.189,1.841Z" transform="translate(-3058.749 -2751.584)"/><path d="M2.037,1.951a.627.627,0,0,0-.2,1.238l2.93.469a.627.627,0,0,0,.2-1.238l-2.93-.469ZM17,13.423a.627.627,0,1,0,.2-1.238l-2.93-.469a.627.627,0,0,0-.2,1.238Z" transform="translate(-3060.581 -2749.749)"/><path d="M4.92,8.1a.627.627,0,0,0,1.238-.2L5.689,4.972a.627.627,0,0,0-1.238.2L4.92,8.1Z" transform="translate(-3051.483 -2742.484)"/><path d="M5.793,2.467l.754,2.395,2.445-.547L7.3,6.162l1.7,1.848L6.547,7.467,5.793,9.858l-.75-2.391L2.594,8.01l1.7-1.848-1.7-1.848,2.449.547Z" transform="translate(-3056.857 -2748.226)" fill-rule="evenodd"/></g></svg>