<svg xmlns="http://www.w3.org/2000/svg" width="20" height="20" viewBox="0 0 20 20"><path d="M11,1A9.989,9.989,0,0,0,1,11H1A10,10,0,1,0,11,1Zm7.375,14.688A9.875,9.875,0,0,0,16.25,14.5a13.973,13.973,0,0,0,.313-2.875h3.125A8.021,8.021,0,0,1,18.375,15.688Zm-4,3.375A9.652,9.652,0,0,0,16,15.75a7.337,7.337,0,0,1,1.687.937A8.588,8.588,0,0,1,14.375,19.063Zm-10-2.375A8.436,8.436,0,0,1,6,15.75a9.652,9.652,0,0,0,1.625,3.313A8.576,8.576,0,0,1,4.375,16.688ZM3.625,6.313A9.875,9.875,0,0,0,5.75,7.5a13.972,13.972,0,0,0-.312,2.875H2.25A8.753,8.753,0,0,1,3.625,6.313Zm4-3.375A9.652,9.652,0,0,0,6,6.25a8.436,8.436,0,0,1-1.625-.937A8.4,8.4,0,0,1,7.625,2.938Zm10,2.375A8.436,8.436,0,0,1,16,6.25a9.652,9.652,0,0,0-1.625-3.313A8.576,8.576,0,0,1,17.625,5.313ZM10.375,7.25a16.99,16.99,0,0,1-3.187-.5C7.875,4.438,9,2.812,10.375,2.375Zm0,1.25v1.875H6.625c.063-.875.125-1.688.25-2.437A16.363,16.363,0,0,0,10.375,8.5Zm0,3.125V13.5a15.2,15.2,0,0,0-3.438.563,15.33,15.33,0,0,1-.25-2.437Zm0,3.125v4.875c-1.312-.375-2.5-2.063-3.187-4.312A13.08,13.08,0,0,1,10.375,14.75Zm1.25,4.875V14.75a16.99,16.99,0,0,1,3.187.5C14.125,17.562,12.938,19.25,11.625,19.625Zm0-6.125V11.625h3.75c-.062.875-.125,1.687-.25,2.437A16.363,16.363,0,0,0,11.625,13.5Zm0-3.125V8.5a15.2,15.2,0,0,0,3.437-.562,15.33,15.33,0,0,1,.25,2.437Zm0-3.125V2.375c1.312.375,2.5,2.063,3.187,4.375A16.99,16.99,0,0,1,11.625,7.25Zm-6.25,4.375A20.243,20.243,0,0,0,5.688,14.5a11.642,11.642,0,0,0-2.125,1.188A8.668,8.668,0,0,1,2.25,11.625Zm11.25-1.25A20.243,20.243,0,0,0,16.313,7.5a11.642,11.642,0,0,0,2.125-1.188,8.668,8.668,0,0,1,1.313,4.063Z" transform="translate(-1 -1)" fill="#212529"/></svg>