<svg xmlns="http://www.w3.org/2000/svg" width="11.709" height="10.2" viewBox="0 0 11.709 10.2"><g transform="translate(6680.172 -2112.778)"><path d="M12.2,7.3a.4.4,0,0,1-.223-.068L6.813,3.8,1.651,7.236a.4.4,0,0,1-.509-.1A.342.342,0,0,1,1.2,6.655L6.589,3.068a.407.407,0,0,1,.446,0L12.42,6.655a.346.346,0,0,1,.141.4A.383.383,0,0,1,12.2,7.3ZM2.582,5.152A.372.372,0,0,1,2.2,4.793V3.359A.372.372,0,0,1,2.582,3H4.12a.36.36,0,1,1,0,.717H2.966V4.793A.372.372,0,0,1,2.582,5.152Z" transform="translate(-6681.143 2109.878)" fill="#393634"/><path d="M12.2,7.4h0a.5.5,0,0,1-.278-.085L6.813,3.92,1.7,7.323a.506.506,0,0,1-.244.063A.5.5,0,0,1,1.063,7.2a.443.443,0,0,1,.079-.62l.007-.005L6.534,2.985a.507.507,0,0,1,.557,0l5.385,3.587a.444.444,0,0,1,.18.516A.482.482,0,0,1,12.2,7.4ZM6.813,3.68,12.03,7.153A.3.3,0,0,0,12.2,7.2a.282.282,0,0,0,.269-.182.246.246,0,0,0-.1-.285L6.98,3.151a.312.312,0,0,0-.335,0L1.264,6.735a.242.242,0,0,0-.043.34.294.294,0,0,0,.234.111A.306.306,0,0,0,1.6,7.15ZM2.582,5.252A.473.473,0,0,1,2.1,4.793V3.359A.473.473,0,0,1,2.582,2.9H4.12a.459.459,0,1,1,0,.917H3.066v.976A.473.473,0,0,1,2.582,5.252Zm0-2.152a.273.273,0,0,0-.285.259V4.793a.286.286,0,0,0,.569,0V3.617H4.12a.26.26,0,1,0,0-.517Z" transform="translate(-6681.143 2109.878)" fill="#393634"/><path d="M12.211,20.021H10.256a.376.376,0,0,1-.391-.359V17.152H7.519v2.511a.376.376,0,0,1-.391.359H5.173A1.128,1.128,0,0,1,4,18.945V15.359a.392.392,0,0,1,.782,0v3.587a.376.376,0,0,0,.391.359H6.737V16.793a.376.376,0,0,1,.391-.359h3.128a.376.376,0,0,1,.391.359V19.3h1.564a.376.376,0,0,0,.391-.359V15.359a.392.392,0,0,1,.782,0v3.587a1.128,1.128,0,0,1-1.173,1.076Z" transform="translate(-6683.022 2102.857)" fill="#393634"/><path d="M12.211,20.121H10.256a.476.476,0,0,1-.491-.459V17.252H7.619v2.411a.476.476,0,0,1-.491.459H5.173A1.229,1.229,0,0,1,3.9,18.945V15.359a.492.492,0,0,1,.982,0v3.587a.277.277,0,0,0,.291.259H6.637V16.793a.476.476,0,0,1,.491-.459h3.128a.476.476,0,0,1,.491.459V19.2h1.464a.277.277,0,0,0,.291-.259V15.359a.492.492,0,0,1,.982,0v3.587A1.229,1.229,0,0,1,12.211,20.121ZM7.419,17.052H9.965v2.611a.277.277,0,0,0,.291.259h1.955a1.029,1.029,0,0,0,1.073-.976V15.359a.293.293,0,0,0-.582,0v3.587a.476.476,0,0,1-.491.459H10.547V16.793a.277.277,0,0,0-.291-.259H7.128a.277.277,0,0,0-.291.259V19.4H5.173a.476.476,0,0,1-.491-.459V15.359a.293.293,0,0,0-.582,0v3.587a1.029,1.029,0,0,0,1.073.976H7.128a.277.277,0,0,0,.291-.259Z" transform="translate(-6683.022 2102.857)" fill="#393634"/></g></svg>