<svg xmlns="http://www.w3.org/2000/svg" width="19" height="23" viewBox="0 0 19 23"><g transform="translate(-4.5 -1.5)"><path d="M20,29.5H8A3.5,3.5,0,0,1,4.5,26V18a1.5,1.5,0,0,1,3,0v8a.5.5,0,0,0,.5.5H20a.5.5,0,0,0,.5-.5V18a1.5,1.5,0,0,1,3,0v8A3.5,3.5,0,0,1,20,29.5Z" transform="translate(0 -5)" fill="#fff"/><path d="M20,8.5a1.5,1.5,0,0,1-1.061-.439L16,5.121,13.061,8.061a1.5,1.5,0,0,1-2.121-2.121l4-4a1.5,1.5,0,0,1,2.121,0l4,4A1.5,1.5,0,0,1,20,8.5Z" transform="translate(-2)" fill="#fff"/><path d="M18,17.5A1.5,1.5,0,0,1,16.5,16V3a1.5,1.5,0,0,1,3,0V16A1.5,1.5,0,0,1,18,17.5Z" transform="translate(-4)" fill="#fff"/></g></svg>