<svg xmlns="http://www.w3.org/2000/svg" width="20.023" height="20" viewBox="0 0 20.023 20"><g transform="translate(-1.493)"><path d="M18.053,15.155q-.195,0-.391-.014a5.455,5.455,0,0,1-3.981-2.175.91.91,0,0,1,1.457-1.09,3.639,3.639,0,0,0,5.487.393L23.355,9.54a3.639,3.639,0,1,0-5.146-5.146L16.643,5.952a.91.91,0,1,1-1.283-1.29l1.564-1.556a5.458,5.458,0,0,1,7.717,7.721l-2.729,2.729A5.455,5.455,0,0,1,18.053,15.155Z" transform="translate(-4.725 -1.511)"/><path d="M6.951,25.636a5.456,5.456,0,0,1-3.859-9.315l2.729-2.729a5.458,5.458,0,0,1,8.231.59.91.91,0,0,1-1.457,1.09,3.639,3.639,0,0,0-5.487-.393L4.378,17.607a3.639,3.639,0,1,0,5.146,5.146L11.079,21.2a.91.91,0,0,1,1.287,1.286l-1.555,1.556A5.442,5.442,0,0,1,6.951,25.636Z" transform="translate(0 -5.636)"/></g></svg>