<svg xmlns="http://www.w3.org/2000/svg" width="21.667" height="20" viewBox="0 0 21.667 20"><g transform="translate(-3.375 -4.5)"><path d="M22.958,6.75H20.875V8.021a.421.421,0,0,1-.417.424h-.833a.421.421,0,0,1-.417-.424V6.75h-10V8.021a.421.421,0,0,1-.417.424H7.958a.421.421,0,0,1-.417-.424V6.75H5.458A2.107,2.107,0,0,0,3.375,8.868v14.4a2.107,2.107,0,0,0,2.083,2.118h17.5a2.107,2.107,0,0,0,2.083-2.118V8.868A2.107,2.107,0,0,0,22.958,6.75Zm.417,15.882a1.053,1.053,0,0,1-1.042,1.059H6.083a1.053,1.053,0,0,1-1.042-1.059V13.1a.421.421,0,0,1,.417-.424h17.5a.421.421,0,0,1,.417.424Z" transform="translate(0 -0.885)" fill="#212529"/><path d="M10.365,4.841a.342.342,0,0,0-.341-.341H9.341A.342.342,0,0,0,9,4.841V5.865h1.365Z" transform="translate(-1.396)" fill="#212529"/><path d="M26.115,4.841a.342.342,0,0,0-.341-.341h-.683a.342.342,0,0,0-.341.341V5.865h1.365Z" transform="translate(-5.303)" fill="#212529"/></g></svg>