<svg xmlns="http://www.w3.org/2000/svg" width="20.023" height="20" viewBox="0 0 20.023 20"><g transform="translate(-1.493 -1.511)"><path d="M4209.092-2153.085a5.418,5.418,0,0,1-1.6-3.859,5.421,5.421,0,0,1,1.6-3.86l2.73-2.729a5.456,5.456,0,0,1,4.25-1.585,5.45,5.45,0,0,1,3.98,2.175.91.91,0,0,1-.184,1.273.909.909,0,0,1-1.273-.184,3.636,3.636,0,0,0-2.655-1.45,3.638,3.638,0,0,0-2.833,1.057l-2.729,2.73a3.615,3.615,0,0,0-1.066,2.573,3.615,3.615,0,0,0,1.066,2.573,3.643,3.643,0,0,0,5.146,0l1.556-1.556a.908.908,0,0,1,1.286,0,.91.91,0,0,1,0,1.287l-1.554,1.555a5.443,5.443,0,0,1-3.861,1.6A5.437,5.437,0,0,1,4209.092-2153.085Zm9.846-4.773a5.459,5.459,0,0,1-3.98-2.175.911.911,0,0,1,.184-1.274.91.91,0,0,1,1.273.183,3.637,3.637,0,0,0,2.655,1.45,3.635,3.635,0,0,0,2.833-1.057l2.73-2.73a3.611,3.611,0,0,0,1.066-2.572,3.616,3.616,0,0,0-1.066-2.574,3.643,3.643,0,0,0-5.146,0l-1.566,1.559a.908.908,0,0,1-1.286,0,.908.908,0,0,1,0-1.286l1.564-1.556a5.465,5.465,0,0,1,7.718,0,5.421,5.421,0,0,1,1.6,3.86,5.418,5.418,0,0,1-1.6,3.859l-2.729,2.729a5.453,5.453,0,0,1-3.859,1.6C4219.2-2157.845,4219.069-2157.85,4218.938-2157.858Z" transform="translate(-4206 2173)" fill="#212529"/></g></svg>