<svg xmlns="http://www.w3.org/2000/svg" width="26.074" height="23.104" viewBox="0 0 26.074 23.104"><g transform="translate(-281.555 -12.494)"><path d="M10.574,2.5A8.074,8.074,0,1,1,2.5,10.574,8.083,8.083,0,0,1,10.574,2.5Zm0,15.148A7.074,7.074,0,1,0,3.5,10.574,7.082,7.082,0,0,0,10.574,17.648Z" transform="translate(288.98 16.949)" fill="#505a63"/><path d="M18,22.695a.5.5,0,0,1-.5-.5V18a.5.5,0,0,1,1,0v4.195A.5.5,0,0,1,18,22.695Z" transform="translate(281.555 8.796)" fill="#505a63"/><path transform="translate(281.555 12.494)" fill="#505a63"/></g></svg>