<svg xmlns="http://www.w3.org/2000/svg" width="16.766" height="20" viewBox="0 0 16.766 20"><path d="M5.994,18.62a2.58,2.58,0,0,0,2.6,2.087H11a3.34,3.34,0,0,0,6.68,0H20.1a2.58,2.58,0,0,0,2.6-2.087,2.5,2.5,0,0,0-1.269-2.613.777.777,0,0,1-.367-.693V12.6A7,7,0,0,0,16.882,6.17a2.5,2.5,0,0,0-4.951,0A6.68,6.68,0,0,0,9.751,7.581a6.613,6.613,0,0,0-2.087,4.776v2.956a.777.777,0,0,1-.367.693A2.5,2.5,0,0,0,5.994,18.62Zm8.35,3.757a1.67,1.67,0,0,1-1.67-1.67h3.34A1.67,1.67,0,0,1,14.343,22.377ZM8.1,17.467a2.446,2.446,0,0,0,1.236-2.154V12.357a5.01,5.01,0,0,1,1.52-3.6,4.684,4.684,0,0,1,1.361-.927,4.885,4.885,0,0,1,2.129-.484H14.5a4.743,4.743,0,0,1,1.962.5A5.319,5.319,0,0,1,19.353,12.6v2.714a2.446,2.446,0,0,0,1.236,2.154.835.835,0,0,1,.434.877.91.91,0,0,1-.918.693H8.59a.91.91,0,0,1-.927-.685A.835.835,0,0,1,8.1,17.467Z" transform="translate(-5.962 -4.047)" fill="#fff"/></svg>