<svg xmlns="http://www.w3.org/2000/svg" width="18.289" height="18.045" viewBox="0 0 18.289 18.045"><path d="M2044.894-3152.112a.523.523,0,0,1-.156-.375.525.525,0,0,1,.156-.375l1.72-1.721a.529.529,0,0,1,.376-.156.53.53,0,0,1,.375.156.532.532,0,0,1,0,.751l-1.721,1.721a.528.528,0,0,1-.375.156A.525.525,0,0,1,2044.894-3152.112Zm5.966-.184a.588.588,0,0,1-.531-.357l-2.516-5.871-5.871-2.516a.589.589,0,0,1-.357-.532.59.59,0,0,1,.338-.545l16.525-7.826a.588.588,0,0,1,.67.115.589.589,0,0,1,.115.671l-7.826,16.524a.59.59,0,0,1-.534.337Zm-7.25-9.315,4.885,2.1a.59.59,0,0,1,.31.31l2.094,4.885,6.559-13.848Zm-1.594,8.638a.529.529,0,0,1,0-.75l3.983-3.983a.525.525,0,0,1,.375-.156.528.528,0,0,1,.376.156.53.53,0,0,1,.155.376.527.527,0,0,1-.156.375l-3.983,3.982a.526.526,0,0,1-.375.157A.525.525,0,0,1,2042.016-3152.972Zm-.86-2.877a.532.532,0,0,1,0-.751l1.721-1.72a.525.525,0,0,1,.375-.156.528.528,0,0,1,.376.156.531.531,0,0,1,.156.375.531.531,0,0,1-.156.376l-1.721,1.72a.525.525,0,0,1-.375.156A.528.528,0,0,1,2041.155-3155.849Z" transform="translate(-2041 3170)" fill="#212529"/></svg>