<svg xmlns="http://www.w3.org/2000/svg" width="20" height="20" viewBox="0 0 20 20"><path d="M12.376,3a1.251,1.251,0,0,0-1.251,1.25l-.15,1.05a1.25,1.25,0,0,1-1.987.823l-.849-.637a1.25,1.25,0,0,0-1.768,0l-.884.884a1.247,1.247,0,0,0,0,1.767l.637.85A1.25,1.25,0,0,1,5.3,10.974l-1.051.151A1.25,1.25,0,0,0,3,12.374v1.251a1.25,1.25,0,0,0,1.25,1.249l1.05.151a1.25,1.25,0,0,1,.823,1.987l-.637.849a1.249,1.249,0,0,0,0,1.768l.884.884a1.247,1.247,0,0,0,1.767,0l.85-.637a1.25,1.25,0,0,1,1.987.822l.151,1.051A1.25,1.25,0,0,0,12.374,23h1.251a1.25,1.25,0,0,0,1.249-1.25l.151-1.05a1.25,1.25,0,0,1,1.987-.823l.849.637a1.249,1.249,0,0,0,1.768,0l.884-.884a1.249,1.249,0,0,0,0-1.767l-.637-.85a1.25,1.25,0,0,1,.822-1.987l1.051-.151A1.25,1.25,0,0,0,23,13.626V12.374a1.25,1.25,0,0,0-1.25-1.249l-1.05-.151a1.25,1.25,0,0,1-.823-1.987l.637-.849a1.251,1.251,0,0,0,0-1.768l-.884-.884a1.25,1.25,0,0,0-1.767,0l-.85.637A1.25,1.25,0,0,1,15.026,5.3L14.874,4.25A1.25,1.25,0,0,0,13.626,3H12.374ZM13,15.5A2.5,2.5,0,1,0,10.5,13,2.5,2.5,0,0,0,13,15.5Z" transform="translate(-3 -3)" fill="#212529" fill-rule="evenodd"/></svg>