<svg xmlns="http://www.w3.org/2000/svg" width="10.717" height="10.68" viewBox="0 0 10.717 10.68"><g transform="translate(6685.35 -2185.593)"><path d="M1-.35A1.35,1.35,0,1,1-.35,1,1.352,1.352,0,0,1,1-.35Zm0,2A.65.65,0,1,0,.35,1,.651.651,0,0,0,1,1.65Z" transform="translate(-6683.5 2193.923)" fill="#393634"/><g transform="translate(-3.039)"><path d="M1-.35A1.35,1.35,0,1,1-.35,1,1.352,1.352,0,0,1,1-.35Zm0,2A.65.65,0,1,0,.35,1,.651.651,0,0,0,1,1.65Z" transform="translate(-6673.944 2193.923)" fill="#393634"/><path d="M8.359,7.465H3.529A1.274,1.274,0,0,1,2.271,6.333L1.579.869A.577.577,0,0,0,1.024.35H0A.35.35,0,0,1-.35,0,.35.35,0,0,1,0-.35H1.024A1.278,1.278,0,0,1,2.273.782l.157,1.24h7.587a.35.35,0,0,1,.344.416L9.6,6.417A1.269,1.269,0,0,1,8.359,7.465Zm-.018-.7h.018a.571.571,0,0,0,.549-.479l.685-3.564H2.519l.446,3.524a.575.575,0,0,0,.56.519Z" transform="translate(-6681.961 2185.943)" fill="#393634"/></g></g></svg>