<svg xmlns="http://www.w3.org/2000/svg" width="22.065" height="17" viewBox="0 0 22.065 17"><path d="M4243.693-1663a3.7,3.7,0,0,1-3.692-3.693v-9.613a3.7,3.7,0,0,1,3.692-3.693h14.68a3.7,3.7,0,0,1,3.693,3.693v9.613a3.7,3.7,0,0,1-3.693,3.693Zm-2.215-3.693a2.218,2.218,0,0,0,2.215,2.216h14.68a2.218,2.218,0,0,0,2.215-2.216v-8.645h-2.022a.671.671,0,0,1,0,.077.739.739,0,0,1-.739.739h-5.664a.74.74,0,0,1-.739-.739c0-.026,0-.052,0-.077h-2a.5.5,0,0,1,.132.338v3a.5.5,0,0,1-.5.5h-4a.5.5,0,0,1-.5-.5v-3a.5.5,0,0,1,.132-.338h-3.22Zm19.11-8.645v-.968a2.218,2.218,0,0,0-2.215-2.216h-14.68a2.218,2.218,0,0,0-2.215,2.216v.968h3.22a.5.5,0,0,1,.367-.161h4a.5.5,0,0,1,.367.161h2a.739.739,0,0,1,.735-.661h5.664a.738.738,0,0,1,.735.661Zm-16.181,8.145a.739.739,0,0,1-.739-.739.739.739,0,0,1,.739-.738h13.424a.738.738,0,0,1,.739.738.739.739,0,0,1-.739.739Zm7.76-3.807a.739.739,0,0,1-.739-.739.739.739,0,0,1,.739-.738h5.664a.738.738,0,0,1,.739.738.739.739,0,0,1-.739.739Z" transform="translate(-4240 1680)" fill="#212529"/></svg>