<svg xmlns="http://www.w3.org/2000/svg" width="34.665" height="20" viewBox="0 0 34.665 20"><path d="M28,19.334a.666.666,0,0,1,.667-.667h4A.668.668,0,0,0,33.329,18c0-.165-.142-3.337-5.333-3.337-.215,0-.426.005-.632.017a.668.668,0,0,1-.07-1.333c.229-.012.464-.018.7-.018a9.219,9.219,0,0,1,3.739.682A5.084,5.084,0,0,1,33.78,15.6a4.345,4.345,0,0,1,.884,2.4,2,2,0,0,1-2,2h-4A.666.666,0,0,1,28,19.334ZM6,20H2a2,2,0,0,1-2-2,4.345,4.345,0,0,1,.884-2.4,5.085,5.085,0,0,1,2.044-1.585,9.219,9.219,0,0,1,3.739-.682c.24,0,.474.007.7.018a.668.668,0,0,1-.07,1.333c-.206-.012-.417-.017-.632-.017-5.191,0-5.329,3.172-5.333,3.337A.668.668,0,0,0,2,18.667H6A.667.667,0,0,1,6,20Zm4,0a2,2,0,0,1-2-2,5.306,5.306,0,0,1,1.232-3.086,7.018,7.018,0,0,1,2.837-2.03A13.932,13.932,0,0,1,17.332,12a13.987,13.987,0,0,1,5.264.883,7.018,7.018,0,0,1,2.837,2.03A5.3,5.3,0,0,1,26.665,18a2,2,0,0,1-2,2Zm.319-4.307A4.068,4.068,0,0,0,9.333,18a.667.667,0,0,0,.667.663H24.665A.666.666,0,0,0,25.332,18a4.068,4.068,0,0,0-.984-2.311c-1.3-1.544-3.725-2.358-7.015-2.358S11.616,14.15,10.318,15.692ZM24,8a4,4,0,1,1,4,4A4.005,4.005,0,0,1,24,8Zm1.333,0A2.667,2.667,0,1,0,28,5.333,2.67,2.67,0,0,0,25.332,8ZM2.666,8a4,4,0,1,1,4,4A4.005,4.005,0,0,1,2.666,8ZM4,8A2.667,2.667,0,1,0,6.666,5.333,2.67,2.67,0,0,0,4,8Zm8-2.666a5.333,5.333,0,1,1,5.333,5.333A5.338,5.338,0,0,1,12,5.333Zm1.333,0a4,4,0,1,0,4-4A4,4,0,0,0,13.333,5.333Z" fill="#212529"/></svg>