<svg xmlns="http://www.w3.org/2000/svg" xmlns:xlink="http://www.w3.org/1999/xlink" width="51.835" height="37.994" viewBox="0 0 51.835 37.994"><defs><clipPath id="a"><rect width="51.835" height="37.994" transform="translate(0 0)" fill="#212529"/></clipPath></defs><g transform="translate(0 0)"><g transform="translate(0 0)" clip-path="url(#a)"><path d="M33.934,36.849c.159-.148.168-.263,0-.4-.073-.062-.133-.14-.2-.209-1.361-1.38-2.76-2.725-4.072-4.15a4.486,4.486,0,0,1-1.056-4.071,4.79,4.79,0,0,1,2.012-3.128,4.548,4.548,0,0,1,2.282-.915,4.663,4.663,0,0,1,2.977.511,8.915,8.915,0,0,1,1.307.955c1.08,1.032,2.124,2.1,3.178,3.161.247.248.478.513.717.77.125.135.224.131.394.023.46-.289.955-6.034,1.006-6.53a3.285,3.285,0,0,0-.345-.073c-.407-.043-.815-.069-1.222-.116-.8-.092-1.6-.2-2.406-.29-.636-.069-1.276-.1-1.911-.178-.868-.1-1.73-.244-2.6-.34-.741-.082-1.487-.117-2.23-.182-.284-.024-.566-.073-.849-.11-.352-.047-.7-.1-1.057-.14-.309-.036-.621-.051-.93-.088-.459-.055-.916-.129-1.376-.18-.314-.034-.632-.031-.946-.063-.9-.091-1.8-.2-2.7-.287-.989-.1-1.977-.2-2.966-.293-.246-.024-.492-.067-.739-.075-.5-.016-.985-.171-1.5-.172a14.741,14.741,0,0,1-1.644-.174c-.643-.075-1.285-.156-1.93-.224-.607-.064-1.217-.108-1.825-.173-.662-.071-1.322-.162-1.983-.232-.616-.066-1.235-.108-1.851-.175s-1.245-.159-1.869-.227c-.475-.051-.953-.073-1.429-.121-.872-.091-1.742-.19-2.613-.289-.283-.032-.565-.081-.848-.111-.395-.04-.791-.07-1.208-.106-.083.635-.161,1.263-.249,1.89-.016.117-.094.227-.1.343-.033.527-.025,1.058-.079,1.583-.1.954-.232,1.9-.34,2.856-.069.615-.114,1.232-.176,1.848C.491,27.7.409,28.439.331,29.176c-.041.389-.075.778-.118,1.166A18.456,18.456,0,0,0,0,32.324a4.446,4.446,0,0,0,.276,1.439,3.422,3.422,0,0,0,1.956,2.061c.534.233,28.419,3.182,28.952,3.252a34.057,34.057,0,0,0,2.75-2.227" transform="translate(0 -9.262)" fill="#212529"/><path d="M82.776,51.82a2.541,2.541,0,0,0-.667-1.573q-2.042-2.054-4.092-4.1l-1.776-1.778c1.939-1.937,3.855-3.848,5.767-5.764a2.708,2.708,0,0,0,.777-1.738,2.871,2.871,0,0,0-2.155-2.942,2.77,2.77,0,0,0-2.616.7c-1.362,1.317-2.709,2.647-4.069,3.967-.578.561-1.17,1.106-1.78,1.681-.043-.036-.15-.116-.243-.209q-2.682-2.674-5.362-5.351a2.563,2.563,0,0,0-1.091-.7,2.953,2.953,0,0,0-1.923-.006,2.659,2.659,0,0,0-1.708,1.647,2.715,2.715,0,0,0,.176,2.336,6.815,6.815,0,0,0,1.245,1.421c1.5,1.494,2.982,3,4.474,4.5.148.149.313.283.479.432-.109.115-.179.192-.253.266L65.7,46.872c-1.031,1.032-2.052,2.074-3.1,3.092a2.892,2.892,0,0,0,.358,4.541,2.726,2.726,0,0,0,3.374-.256c1.872-1.833,3.711-3.7,5.564-5.55.279-.279.335-.28.606-.009l1.248,1.246,2.822,2.818c.163.162.329.321.494.48a14.732,14.732,0,0,0,1.327,1.25,2.305,2.305,0,0,0,2.121.4,4.259,4.259,0,0,0,1.324-.663,2.544,2.544,0,0,0,.928-2.4" transform="translate(-30.961 -16.997)" fill="#212529"/><path d="M3.884,5.259c.767.092,39.92,4.3,40.543,4.37.136.015.279.05.3-.19.054-.507.159-1.009.223-1.515A3.437,3.437,0,0,0,45,6.987a3.734,3.734,0,0,0-.445-1.537,3.472,3.472,0,0,0-2.028-1.66C41.566,3.555,7.093-.055,6.875,0a3.419,3.419,0,0,0-2.13,1.31,2.19,2.19,0,0,0-.462.7,4.889,4.889,0,0,0-.295,1.023c-.048.675-.183,1.344-.265,2.018a.271.271,0,0,0,.161.21" transform="translate(-1.87 0)" fill="#212529"/></g></g></svg>