<svg xmlns="http://www.w3.org/2000/svg" width="34" height="34" viewBox="0 0 34 34"><g transform="translate(27.237)"><circle cx="17" cy="17" r="17" transform="translate(-27.237)" fill="#ff5d5d"/><path d="M17.7,10.134h0L10.134,17.7a1.5,1.5,0,0,1-2.117-2.117l4.991-4.991H1.512A1.429,1.429,0,0,1,0,9.075,1.429,1.429,0,0,1,1.512,7.562H13.007L8.016,2.571a1.462,1.462,0,0,1,0-2.117,1.462,1.462,0,0,1,2.117,0h0L17.7,8.016A1.46,1.46,0,0,1,17.7,10.134Z" transform="translate(-23.128 16.899) rotate(-45)" fill="#fffdfd"/></g></svg>