<svg xmlns="http://www.w3.org/2000/svg" width="12.789" height="10.7" viewBox="0 0 12.789 10.7"><g transform="translate(6685.323 -1964.17)"><path d="M11.647,11.774H4.288A1.154,1.154,0,0,1,3.15,10.635V3.592a1.138,1.138,0,0,1,.832-1.125l.025-.006a16.233,16.233,0,0,1,3.3-.336c.218,0,.439,0,.657.013.218-.009.439-.013.657-.013a16.233,16.233,0,0,1,3.3.336l.039.011a1.2,1.2,0,0,1,.817,1.12v7.043A1.154,1.154,0,0,1,11.647,11.774ZM4.164,3.143a.442.442,0,0,0-.314.449v7.043a.462.462,0,0,0,.438.438h7.359a.462.462,0,0,0,.438-.438V3.592a.506.506,0,0,0-.323-.451,15.538,15.538,0,0,0-3.138-.316c-.213,0-.429,0-.643.013H7.954c-.213-.009-.43-.013-.643-.013A15.536,15.536,0,0,0,4.164,3.143Z" transform="translate(-6686.896 1962.045)" fill="#393634"/><path d="M10.487,14.734H8.91a.35.35,0,0,1-.2-.637l1.577-1.1a.35.35,0,0,1,.551.287v1.1A.35.35,0,0,1,10.487,14.734Zm-6.307,0H2.6a.35.35,0,0,1-.194-.641l1.577-1.051a.35.35,0,0,1,.544.291v1.051A.35.35,0,0,1,4.179,14.734Zm5.782-2.1H8.91a.35.35,0,0,1-.313-.507L8.86,11.6a.35.35,0,0,1,.313-.193h.788a.35.35,0,0,1,.35.35v.526A.35.35,0,0,1,9.961,12.632Zm-5.782,0H3.128a.35.35,0,0,1-.35-.35v-.526a.35.35,0,0,1,.35-.35h.788a.35.35,0,0,1,.313.193l.263.526a.35.35,0,0,1-.313.507Zm3.679-.526H5.231a.35.35,0,1,1,0-.7H7.859a.35.35,0,1,1,0,.7ZM6.545,10.529a18.543,18.543,0,0,1-4.553-.536.35.35,0,0,1,.17-.679,17.853,17.853,0,0,0,4.383.515,17.853,17.853,0,0,0,4.383-.515.35.35,0,0,1,.17.679A18.543,18.543,0,0,1,6.545,10.529Zm6.045-1.577h-.526a.35.35,0,0,1-.35-.35V6.85h-.7a.35.35,0,1,1,0-.7h1.577a.35.35,0,0,1,.35.35V8.6A.35.35,0,0,1,12.589,8.952Zm-11.564,0H.5A.35.35,0,0,1,.15,8.6V6.5A.35.35,0,0,1,.5,6.15H2.077a.35.35,0,0,1,0,.7h-.7V8.6A.35.35,0,0,1,1.026,8.952Z" transform="translate(-6685.473 1960.136)" fill="#393634"/></g></svg>