<svg xmlns="http://www.w3.org/2000/svg" width="21" height="21" viewBox="0 0 21 21"><g transform="translate(0.5 0.5)"><path d="M124.154,57.4c-.039-.039-.065-.064-.091-.091-.189-.2-.378-.395-.568-.591l-1.382-1.424q-.444-.457-.888-.914a.055.055,0,0,0-.092,0c-.107.115-.209.234-.317.348-.174.183-.353.361-.528.543-.117.122-.228.25-.346.37s-.273.26-.405.4-.276.3-.417.445c-.074.077-.161.143-.234.221-.156.167-.305.339-.461.507-.06.064-.13.12-.2.188h1v4.825h.218q1.82,0,3.64,0c.059,0,.079-.017.075-.076-.007-.109-.01-.218-.01-.326q0-2.165,0-4.33a.846.846,0,0,1,.011-.1Z" transform="translate(-111.188 -51.122)" fill="#212529"/><rect width="3.942" height="1" transform="translate(8.028 15.328)" fill="#212529"/><rect width="3.938" height="1.475" transform="translate(8.034 11.552)" fill="#212529"/><path d="M134.6,225.914c0,.231,0,.461,0,.692,0,.082,0,.165,0,.248,0,.035.009.058.075.053s.138,0,.207,0h3.566c.031,0,.061,0,.093-.007V225.9H134.6a.043.043,0,0,0,0,.013" transform="translate(-126.571 -212.226)" fill="#212529"/><path d="M10,0A10,10,0,1,0,20,10,10.011,10.011,0,0,0,10,0m0,18.81A8.81,8.81,0,1,1,18.81,10,8.82,8.82,0,0,1,10,18.81" fill="#212529"/><path d="M10,20.5A10.5,10.5,0,1,1,20.5,10,10.512,10.512,0,0,1,10,20.5Zm0-20A9.5,9.5,0,1,0,19.5,10,9.511,9.511,0,0,0,10,.5Zm0,18.81A9.31,9.31,0,1,1,19.31,10,9.321,9.321,0,0,1,10,19.31ZM10,1.69A8.31,8.31,0,1,0,18.31,10,8.32,8.32,0,0,0,10,1.69Z" fill="#212529"/></g></svg>