<svg xmlns="http://www.w3.org/2000/svg" width="22.129" height="21" viewBox="0 0 22.129 21"><g transform="translate(3144.059 2764.269)"><path d="M4131.848-2671.04a10.069,10.069,0,0,1-3.6-5.16c-.005-.015-.008-.029-.013-.044h-.905c-.253,0-.364-.181-.246-.4l.785-1.472c.119-.22.31-.58.428-.8l.786-1.472c.117-.22.309-.22.427,0l.785,1.472.428.8.785,1.472c.117.22.007.4-.246.4h-.915a8.192,8.192,0,0,0,7.658,5.266,8.1,8.1,0,0,0,8.151-8.021,8.1,8.1,0,0,0-8.151-8.022,8.156,8.156,0,0,0-5.832,2.416,1.015,1.015,0,0,1-1.42.017.979.979,0,0,1-.017-1.4A10.167,10.167,0,0,1,4138-2689a10.093,10.093,0,0,1,10.161,10A10.092,10.092,0,0,1,4138-2669,10.174,10.174,0,0,1,4131.848-2671.04Zm2.54-4.566.179-.1a2.714,2.714,0,0,0,.525-.359,2.044,2.044,0,0,0,.369-.431,2.535,2.535,0,0,0,.3-1.352,2.784,2.784,0,0,0-.041-.468h-1.331v-1.606h.894a5.378,5.378,0,0,1-.225-1.354,3.132,3.132,0,0,1,.242-1.25,2.692,2.692,0,0,1,.69-.959,3.033,3.033,0,0,1,1.049-.6,4.06,4.06,0,0,1,1.307-.2,4.025,4.025,0,0,1,1.2.175,3.059,3.059,0,0,1,1,.524,2.657,2.657,0,0,1,.7.867,3.112,3.112,0,0,1,.317,1.166l.03.363h-1.95l-.026-.308a1.122,1.122,0,0,0-1.292-1.167,1.435,1.435,0,0,0-.551.1,1.238,1.238,0,0,0-.415.274,1.224,1.224,0,0,0-.265.407,1.3,1.3,0,0,0-.1.494,5.2,5.2,0,0,0,.269,1.465h2.123v1.606h-1.725a1.583,1.583,0,0,1,.016.232,3.415,3.415,0,0,1-.3,1.512,2.556,2.556,0,0,1-.248.4,3.373,3.373,0,0,1,.418.034c.162.022.335.049.522.082l.557.1.537.1c.162.031.307.057.433.077a1.57,1.57,0,0,0,.236.027,2.786,2.786,0,0,0,1.278-.323l.5-.254v1.994l-.2.091a3.7,3.7,0,0,1-1.52.321,5.71,5.71,0,0,1-1.543-.306,5.138,5.138,0,0,0-1.32-.275,5.159,5.159,0,0,0-2.154.549l-.488.227Z" transform="translate(-7270.59 -74.769)" fill="#212529"/><path d="M4138-2668.5a10.67,10.67,0,0,1-6.452-2.139,10.589,10.589,0,0,1-3.686-5.1h-.537a.779.779,0,0,1-.692-.363.771.771,0,0,1,.005-.774l.785-1.471c.095-.175.233-.435.345-.646l.083-.155.787-1.472a.751.751,0,0,1,.654-.429.744.744,0,0,1,.655.429l.786,1.473c.117.22.31.58.427.8l.785,1.473a.769.769,0,0,1,0,.774.778.778,0,0,1-.691.362h-.157a7.7,7.7,0,0,0,6.9,4.266,7.6,7.6,0,0,0,7.651-7.521,7.6,7.6,0,0,0-7.651-7.522,7.658,7.658,0,0,0-5.477,2.269,1.5,1.5,0,0,1-1.073.446,1.506,1.506,0,0,1-1.048-.421,1.471,1.471,0,0,1-.456-1.05,1.473,1.473,0,0,1,.43-1.061,10.661,10.661,0,0,1,7.624-3.16,10.593,10.593,0,0,1,10.661,10.5A10.593,10.593,0,0,1,4138-2668.5Zm-9.283-7.86.005.018a9.565,9.565,0,0,0,3.425,4.9,9.678,9.678,0,0,0,5.852,1.94,9.592,9.592,0,0,0,9.661-9.5,9.593,9.593,0,0,0-9.661-9.5,9.667,9.667,0,0,0-6.914,2.864.478.478,0,0,0-.141.345.477.477,0,0,0,.149.341.509.509,0,0,0,.355.142.506.506,0,0,0,.362-.15,8.652,8.652,0,0,1,6.188-2.565,8.6,8.6,0,0,1,8.651,8.522,8.6,8.6,0,0,1-8.651,8.521,8.681,8.681,0,0,1-8.127-5.591l-.251-.674h1.261l-.606-1.137-.428-.8-.557-1.045-.641,1.2c-.113.212-.252.474-.347.648l-.605,1.135h.9l.107.356Zm5.17,3.425v-2.97l.443-.237a2.234,2.234,0,0,0,.429-.293,1.531,1.531,0,0,0,.278-.324,1.987,1.987,0,0,0,.222-1.052h-1.372v-2.606h.763a4.5,4.5,0,0,1-.094-.854,3.632,3.632,0,0,1,.283-1.448,3.188,3.188,0,0,1,.818-1.135,3.531,3.531,0,0,1,1.22-.7,4.558,4.558,0,0,1,1.467-.228,4.521,4.521,0,0,1,1.35.2,3.563,3.563,0,0,1,1.161.611,3.151,3.151,0,0,1,.833,1.029,3.6,3.6,0,0,1,.37,1.352l.074.905h-2.952l-.064-.766c-.047-.543-.232-.709-.794-.709a.938.938,0,0,0-.36.064.743.743,0,0,0-.251.164.719.719,0,0,0-.156.242.8.8,0,0,0-.06.307,4.008,4.008,0,0,0,.146.965h2.245v2.606h-1.716a3.926,3.926,0,0,1-.244,1.232l.23.039.558.1.544.1c.159.031.3.056.416.074a1.439,1.439,0,0,0,.162.021,2.292,2.292,0,0,0,1.047-.268l1.226-.625V-2674l-.491.224a4.2,4.2,0,0,1-1.728.365,6.075,6.075,0,0,1-1.689-.328,4.511,4.511,0,0,0-1.174-.253,4.667,4.667,0,0,0-1.942.5Zm3.142-2.06a5.477,5.477,0,0,1,1.466.3,5.36,5.36,0,0,0,1.4.284,3.207,3.207,0,0,0,1.219-.235v-.862a3.219,3.219,0,0,1-1.276.269,2.061,2.061,0,0,1-.318-.034c-.125-.02-.273-.046-.446-.079l-.533-.1-.555-.1c-.178-.032-.342-.058-.5-.079a2.864,2.864,0,0,0-.356-.03l-.99-.008.594-.792a2.077,2.077,0,0,0,.2-.324,2.933,2.933,0,0,0,.249-1.29,1.09,1.09,0,0,0-.01-.159l-.085-.573h1.8v-.606H4136.9l-.108-.353a5.683,5.683,0,0,1-.291-1.612,1.8,1.8,0,0,1,.133-.684,1.726,1.726,0,0,1,.371-.568,1.737,1.737,0,0,1,.581-.386,1.933,1.933,0,0,1,.742-.14,1.6,1.6,0,0,1,1.773,1.475h.946a2.514,2.514,0,0,0-.244-.8,2.156,2.156,0,0,0-.57-.706,2.557,2.557,0,0,0-.835-.437,3.528,3.528,0,0,0-1.05-.151,3.57,3.57,0,0,0-1.146.175,2.532,2.532,0,0,0-.878.5,2.195,2.195,0,0,0-.563.783,2.636,2.636,0,0,0-.2,1.052,4.973,4.973,0,0,0,.208,1.223l.171.631h-1.048v.606h1.253l.071.416a3.263,3.263,0,0,1,.048.552,3.009,3.009,0,0,1-.378,1.621,2.516,2.516,0,0,1-.458.535,3.141,3.141,0,0,1-.536.38v.808A5.455,5.455,0,0,1,4137.03-2675Z" transform="translate(-7270.59 -74.769)" fill="rgba(0,0,0,0)"/></g></svg>