<svg xmlns="http://www.w3.org/2000/svg" width="22.145" height="21.004" viewBox="0 0 22.145 21.004"><g transform="translate(0.502 0.502)"><path d="M-4378.146-21123v-15.3h-2.436v15.3h-1.172a1.5,1.5,0,0,1-1.5-1.5v-13.8h-.971v-2.266h15.669v2.266h-.977v13.8a1.5,1.5,0,0,1-1.5,1.5Zm2.7-6.207v3.156a.7.7,0,0,0,.695.7h2.165a.7.7,0,0,0,.7-.7v-3.156a.694.694,0,0,0-.7-.7h-2.165A.693.693,0,0,0-4375.45-21129.205Zm6.648-6.518v-1.395h1.555v-4.488h-18.359v4.488h1.613v1.395h-2.309a.7.7,0,0,1-.7-.7v-5.879a.7.7,0,0,1,.7-.7h19.75a.7.7,0,0,1,.695.7v5.879a.7.7,0,0,1-.695.7Z" transform="translate(4387 21143)" fill="#fff"/><path d="M-4371.025-21122.5h-7.621v-15.3h-1.436v15.3h-1.672a2,2,0,0,1-2-2v-10.729h-2.551a1.2,1.2,0,0,1-1.2-1.2v-5.879a1.2,1.2,0,0,1,1.2-1.2h19.75a1.2,1.2,0,0,1,1.195,1.2v5.879a1.2,1.2,0,0,1-1.195,1.2h-2.477v10.729A2,2,0,0,1-4371.025-21122.5Zm-6.621-1h6.621a1,1,0,0,0,1-1v-14.3h.977v-1.266h-14.669v1.266h.971v14.3a1,1,0,0,0,1,1h.672v-15.3h3.436Zm9.344-12.725h1.75a.2.2,0,0,0,.195-.2v-5.879a.2.2,0,0,0-.195-.2h-19.75a.2.2,0,0,0-.2.2v5.879a.2.2,0,0,0,.2.2h1.809v-.395h-1.613v-5.488h19.359v5.488h-1.555Zm-.727-1.395h1.282v-3.488h-17.359v3.488h1.356v-.178h-.971v-3.266h16.669v3.266h-.977Zm-3.562,12.77h-2.165a1.2,1.2,0,0,1-1.195-1.2v-3.156a1.2,1.2,0,0,1,1.195-1.2h2.165a1.2,1.2,0,0,1,1.2,1.2v3.156A1.2,1.2,0,0,1-4372.59-21124.848Zm-2.165-4.553a.193.193,0,0,0-.195.2v3.156a.2.2,0,0,0,.195.2h2.165a.2.2,0,0,0,.2-.2v-3.156a.2.2,0,0,0-.2-.2Z" transform="translate(4387 21143)" fill="rgba(0,0,0,0)"/></g></svg>