<svg xmlns="http://www.w3.org/2000/svg" width="20" height="20" viewBox="0 0 20 20"><path d="M-4385.332-21198a1.672,1.672,0,0,1-1.667-1.666v-16.668a1.672,1.672,0,0,1,1.667-1.666h10a1.672,1.672,0,0,1,1.667,1.666v.98l-3.754,3.748v3.883l3.754,3.748v4.309a1.672,1.672,0,0,1-1.667,1.666Zm4.164-2.5a.834.834,0,0,0,.836.836.833.833,0,0,0,.831-.836.83.83,0,0,0-.831-.83A.832.832,0,0,0-4381.167-21200.5Zm10.059-3.27a8.335,8.335,0,0,0,0-11.785l1.182-1.182a10,10,0,0,1,0,14.143Zm-1.715-3.633a3.736,3.736,0,0,0,0-5.275l.878-.879a4.98,4.98,0,0,1,0,7.033Zm-2.657-1.512a1.24,1.24,0,0,0,0-1.762l.884-.879a2.494,2.494,0,0,1,0,3.52Z" transform="translate(4386.999 21218)" fill="#fff"/></svg>