<svg xmlns="http://www.w3.org/2000/svg" width="21.001" height="21" viewBox="0 0 21.001 21"><g transform="translate(0.502 0.502)"><path d="M-4387-21437a10.015,10.015,0,0,1,10-10,10.011,10.011,0,0,1,10,10,10.007,10.007,0,0,1-10,10A10.011,10.011,0,0,1-4387-21437Zm1.189,0a8.821,8.821,0,0,0,8.811,8.811,8.817,8.817,0,0,0,8.811-8.811,8.821,8.821,0,0,0-8.811-8.811A8.825,8.825,0,0,0-4385.812-21437Zm6.819,6.766v-1.475h3.94v1.475Zm0-1.926c.005-.119.005-.242.005-.361,0-.34-.005-.678-.005-1.018,0-.01.005-.016.005-.021h3.94v1.459a.541.541,0,0,1-.1.01c-1.189.006-2.374,0-3.563.006a1.252,1.252,0,0,0-.209.006h-.014C-4378.984-21432.082-4378.993-21432.113-4378.993-21432.162Zm.005-1.809v-1.475h3.94v1.475Zm.242-1.928h-.215v-4.822h-1.006c.075-.07.146-.129.2-.193.156-.162.307-.34.463-.5.07-.08.156-.145.231-.225.14-.146.274-.3.42-.441.129-.135.269-.264.4-.4.119-.119.231-.248.345-.367.178-.182.355-.359.527-.543.113-.113.215-.236.318-.35a.055.055,0,0,1,.091,0c.3.3.592.607.888.914.463.475.926.947,1.383,1.422.188.193.377.393.57.592.021.027.049.049.086.092h-1a.48.48,0,0,0-.011.1v4.328c0,.107.005.221.011.328.005.061-.016.076-.075.076Q-4376.923-21435.9-4378.746-21435.9Z" transform="translate(4387 21447)" fill="#f8f8f8"/><path d="M-4377-21447.5a10.513,10.513,0,0,1,10.5,10.5,10.513,10.513,0,0,1-10.5,10.5,10.513,10.513,0,0,1-10.5-10.5A10.513,10.513,0,0,1-4377-21447.5Zm0,20a9.511,9.511,0,0,0,9.5-9.5,9.511,9.511,0,0,0-9.5-9.5,9.511,9.511,0,0,0-9.5,9.5A9.511,9.511,0,0,0-4377-21427.5Zm0-18.811a9.321,9.321,0,0,1,9.311,9.311,9.321,9.321,0,0,1-9.311,9.311,9.321,9.321,0,0,1-9.311-9.311A9.321,9.321,0,0,1-4377-21446.312Zm0,17.621a8.321,8.321,0,0,0,8.311-8.311,8.321,8.321,0,0,0-8.311-8.311,8.321,8.321,0,0,0-8.311,8.311A8.321,8.321,0,0,0-4377-21428.691Zm-.007-15.572a.548.548,0,0,1,.408.18c.3.3.587.6.885.91l.286.293c.36.369.733.752,1.1,1.129l.3.316c.088.092.176.184.265.275l.018.018.014.016c.017.018.042.043.072.076l.726.83h-1.609v3.924c0,.092,0,.191.01.3a.61.61,0,0,1-.015.191v4.123h-.005v1.949h-4.94v-2.475c0-.1,0-.209,0-.312,0-.168,0-.336,0-.5s0-.342,0-.514a.52.52,0,0,1,.005-.074v-2.33h.027v-4.275h-1.773l.925-.865.075-.068a1.4,1.4,0,0,0,.1-.1l.009-.01c.072-.074.144-.154.22-.238s.154-.17.235-.256a1.864,1.864,0,0,1,.156-.152c.03-.027.058-.053.079-.074.052-.055.1-.107.149-.16.089-.094.18-.193.278-.289.081-.086.165-.166.246-.246.054-.051.107-.1.16-.156s.13-.135.2-.209c.046-.051.092-.1.138-.148l0-.006.133-.135c.134-.137.261-.268.386-.4l.012-.012c.066-.066.131-.141.2-.217.034-.039.068-.078.1-.115l.014-.014A.561.561,0,0,1-4377.008-21444.264Zm1.8,3.043c-.312-.322-.628-.646-.936-.961l-.288-.295c-.19-.2-.377-.391-.564-.582l-.016.016c-.131.141-.267.277-.4.412l-.129.131-.124.133c-.072.078-.146.16-.226.24-.057.057-.115.113-.173.168-.079.078-.154.15-.224.223l-.009.01c-.086.084-.169.174-.256.268l-.155.164-.075.074h.321v4.822c.961,0,1.944,0,2.918,0v-4.23a.961.961,0,0,1,.02-.191l.08-.4Zm-.338,6.275h-2.94v.475h2.94Zm0,1.883h-2.943v.025c0,.15,0,.3,0,.449.522,0,1.05,0,1.562,0h1.378Zm-.005,1.852h-2.94v.475h2.94Z" transform="translate(4387 21447)" fill="#eee"/></g></svg>